<svg xmlns="http://www.w3.org/2000/svg" width="193" height="50" viewBox="0 0 193 50">
    <g fill="#000" fill-rule="nonzero">
        <path d="M26.036.012c8.405 0 16.822.012 25.227-.012.58 0 .737.134.737.733a32510.12 32510.12 0 0 0 0 48.534c0 .599-.157.733-.737.733-16.846-.012-33.68-.012-50.526 0-.58 0-.737-.134-.737-.733C.012 33.085.012 16.915 0 .733 0 .134.157 0 .737 0c8.44.024 16.87.012 25.3.012zM38.56 3.86c-.362-.268-.616-.44-.833-.635-.435-.39-.423-.61.072-.904.206-.122.206-.28.194-.451-.012-.245-.218-.184-.363-.208-.096-.012-.205 0-.302 0-11.677 0-23.343 0-35.02-.012-.556 0-.7.146-.7.708.011 15.12.011 30.252 0 45.371 0 .55.156.684.675.684C8.32 48.4 14.36 48.4 20.397 48.4c.18 0 .398.098.543-.122-.785-1.014-1.171-2.272-2.113-3.188-.52-.5-.302-1.49.362-1.612.894-.146 1.075-.818 1.534-1.355.845-.99 1.727-1.991 2.874-2.663.157-.085.386-.146.362-.366-.072-.55.278-.5.628-.525a4.716 4.716 0 0 0 1.014-.135c.218-.06.713-.012.314-.513-.108-.134.073-.256.194-.33.205-.134.422-.244.64-.341.302-.135.447-.27.133-.55-.302-.28-.11-.427.18-.476.4-.074.798-.098 1.196-.159.483-.061.93-.183 1.461-.44-.338-.146-.53-.012-.724.013-.423.06-.845.11-1.244-.086-.12-.061-.266-.085-.278-.28 0-.208.157-.208.278-.245.882-.257 1.667-.684 2.452-1.136 1.473-.867 1.871-2.552.881-3.945-.278-.378-.52-.77-.676-1.209-.097-.256-.193-.537 0-.818 1.4 1.978 3.32 3.346 5.096 4.934-.302.061-.592.11-.882.17-.217.038-.398.11-.555.306-.797.965-1.594 1.942-2.452 2.858-1.086 1.148-1.992 2.516-3.647 2.968-.314.085-.58.354-.845.586-1.86 1.637-3.273 3.64-4.565 5.728-.447.72-.169 1.441.616 1.795.338.16.664.306.833.66.194.39.496.5.93.5 4.59-.012 9.178-.012 13.767-.012h.362c.133 0 .218-.049.254-.195.097-.33.06-.672.217-1.002.254-.55-.434-.366-.555-.647-.036-.085-.145-.159-.17-.244-.217-.843-.313-1.686.134-2.492.217-.39.459-.757.7-1.135.097-.147.17-.245.012-.416-.423-.464-.495-.94-.036-1.429.145-.158.314-.415-.073-.488-.507-.11-.47-.44-.338-.782.375-.952.834-1.856 1.546-2.601.302-.318.495-.684.652-1.087.06-.171.133-.379-.072-.489-.193-.11-.29.098-.375.208-.386.5-.7.305-1.014-.073-.41-.489-.58-1.063-.64-1.686-.17-1.856-1.027-3.2-2.753-3.957-.483-.207-.918-.513-1.365-.781-.447-.269-.894-.648-.978-1.124-.205-1.148-1.003-1.49-1.957-1.71-.29-.073-.555-.232-.809-.39-.23-.147-.47-.318-.483-.684.725-.061 1.292.44 2.053.561-.58-.561-1.28-.732-1.75-1.245-.496-.55-.496-.819.072-1.283.338-.28.362-.586-.024-.757-.556-.244-.785-.647-.846-1.221a1.073 1.073 0 0 0-.265-.61c-.834-.892-1.184-1.955-1.051-3.176.048-.44-.17-.489-.507-.318-1.353.696-2.814 1.075-4.24 1.6-.844.318-1.702.61-2.51 1.05-.279.16-.617.281-.725.611-.254.708-.616 1.368-.75 2.113-.047.28-.12.562-.337.77-.314.268-.52.598-.592 1.013-.495-.195-.592-.61-.64-1.197-.29.452-.507.757-.713 1.075-.096.146-.18.293-.362.134-.507-.415-.954-.88-1.11-1.55-.037-.172-.037-.33.096-.453.145-.134.302-.048.447.025.157.073.301.232.483.049.628-.623 1.497-1.026 1.956-1.783.58-.965 1.292-1.747 2.246-2.32.302-.184.362-.38-.048-.526-.35-.122-.218-.281-.012-.415.434-.281.881-.171 1.34-.061.242.06.628.28.725-.061.06-.233-.375-.257-.604-.355-.145-.06-.435.074-.387-.232.037-.207.266-.22.447-.22.58.013 1.087.208 1.57.55.23.171.616.232.773-.037.205-.342-.205-.39-.41-.525-.194-.11-.46-.207-.411-.464.06-.28.35-.207.555-.22.665-.036 1.329-.097 1.933-.427.18-.098.483-.232.29-.489-.484-.647.084-.635.422-.757.17-.06.362-.036.531-.073.29-.049.411-.22.17-.452-.484-.489-.133-.647.277-.647.761 0 1.268-.391 1.751-.965.266.623.181 1.221.145 1.795-.036.599.06 1.148.363 1.637.265.44.18.781-.049 1.172-.773 1.32-.857 2.675-.193 4.08.072.158.205.317.12.512-.132.354.085.489.351.586.821.306 1.437.868 1.98 1.54 1.063 1.306 2.138 2.588 3.213 3.883.145.171.302.354.495.428.205.073.52.207.664-.037.12-.196-.157-.342-.29-.476-.906-.953-1.92-1.808-2.741-2.834-.193-.244-.58-.598-.35-.818.302-.281.519.22.712.427a12.727 12.727 0 0 0 3.02 2.32c.494.282 1.026.49 1.617.355.194-.049.447-.073.46-.318.023-.268-.242-.28-.423-.33-.592-.182-1.208-.33-1.788-.549-.712-.269-1.413-.598-1.944-1.197-.217-.244-.459-.61-.241-.867.253-.293.47.122.688.269.821.562 1.836.574 2.415 0-.108-.147-.29-.135-.435-.159-1.147-.232-2.294-.415-3.38-.867-.508-.208-.98-.489-1.341-.904-.121-.146-.266-.317-.037-.464.447-.269.906-.513 1.365-.757.085-.049.193-.086.278.012.084.098.012.183-.024.281-.085.256-.363.427-.363.806.568-.318.906-.794 1.293-1.185.809-.818 1.581-1.673 2.077-2.748.072-.146.06-.451.302-.366.241.073.084.33.036.476-.35 1.148-.821 2.248-1.546 3.225-.072.11-.29.195-.133.39 2.741-1.758 4.094-9.538 1.944-11.174-.06.268.025.525.049.781.048.525.18 1.038.133 1.576-.29 3.334-1.933 5.837-4.577 7.743-.46.33-.942.623-1.498.781-.169.05-.398.171-.495-.012-.12-.232.12-.354.278-.476.145-.11.302-.196.459-.293.616-.391 1.22-.794 1.715-1.332.193-.207.555-.513.362-.745-.193-.244-.483.135-.713.257-.543.293-1.014.757-1.642.867-.205.037-.495.098-.58-.183-.072-.257.073-.489.326-.574.52-.183.689-.623.713-1.1.024-.451.266-.659.604-.818.507-.244 1.014-.5 1.473-.83.278-.195.495-.415.556-.843-.592.342-1.1.66-1.619.953-.241.134-.483.06-.652-.122-.193-.208-.06-.416.06-.611.254-.39.629-.61 1.051-.782.435-.17.87-.317 1.256-.586.64-.44 1.123-.99 1.389-1.783-.604.452-.978.061-1.353-.293a2.397 2.397 0 0 1-.616-.965c-.229-.635-.458-1.258-.652-1.905-.048-.159-.265-.415.025-.525.301-.11.362.207.41.403.145.488.242.99.495 1.429.157.268.254.708.628.623.326-.074.278-.501.314-.794.085-.574.012-1.136-.048-1.722.217.22.35.464.52.671.253.318.494.697.977.574.447-.122.652-.55.652-.94 0-.635.471-.916.846-1.111.447-.232.483-.44.35-.843-.048-.147-.024-.318-.036-.476-.036-.501-.29-.672-.713-.403-.362.22-.58.17-.893-.098-.58-.513-1.305-.33-1.824.256-.326.379-.712.684-.87 1.185-.06.195-.277.28-.495.269-.326-.012-.64-.025-.966-.025-.169 0-.326-.024-.386-.207-.205-.562-.35-1.124-.205-1.735.084-.378.277-.586.688-.39.193.085.35.11.556 0 1.038-.623 2.125-.953 3.441-1.05zm.918-2.21c.688.623 1.268 1.087 1.727 1.673.12.159.266.354.435.403 1.062.318 1.51 1.209 2.016 2.064.157.269.097.452-.108.635-.447.39-.954.586-1.534.647-.205.013-.386.013-.555.184-.58.574-1.16 1.123-1.643 1.783-.423.561-.374.72.302.928 1.304.403 2.21 1.221 2.657 2.528.169.476.338.965.459 1.453.314 1.295 1.062 2.26 2.113 3.005.749.537.942 1.062.821 1.99-.193 1.417-2.234 2.81-3.72 2.15-.072-.037-.156-.049-.217-.098-.326-.183-.591-.073-.809.171-.23.269-.108.537.049.782.277.44.7.867.398 1.44-.217.404-.084.636.193.892.387.379.737.77.677 1.368-.085.733-.206 1.441-.689 2.052-.374.476-.7 1.002-1.038 1.502-.097.147-.254.306-.024.464.338.232.386.599.47.953.145.61.46 1.136.955 1.514.241.196.362.403.434.697.145.586.399 1.135.906 1.465.362.232.447.5.386.855-.06.318-.096.647-.205.953-1.16 3.028-1.002 6.228-1.171 9.391-.024.355.12.611.434.806.894.562 1.752 1.173 2.742 1.613.893.39 1.739.537 2.669.513.398-.013.809-.037 1.207 0 .507.048.64-.135.64-.648-.012-15.168-.012-30.325 0-45.493 0-.489-.145-.623-.616-.61-2.451.024-4.915.011-7.366.011-.966-.036-1.884-.036-2.995-.036zm1.667 18.038c0-.366-.616-.598-1.039-.366-1.135.635-1.787 1.673-2.174 2.882-.072.232-.048.452.266.501.592.085 1.679-.757 1.703-1.356.024-.55.217-.916.748-1.111.242-.086.46-.269.496-.55zm1.28-1.844c-.447.073-.966.342-1.474.623-.253.147-.23.366.06.415.665.11 1.305.232 1.764.794a.217.217 0 0 0 .326.012c.133-.122.084-.268-.012-.378-.145-.159-.326-.306-.483-.452-.073-.073-.157-.147-.109-.257.048-.11.17-.122.254-.097.253.036.507.097.773.146.12.025.253.05.314-.097.06-.135-.06-.22-.157-.294-.327-.268-.7-.403-1.256-.415zM75 18.8c.073-.036.134-.083.207-.095 1.069-.176 1.24-.329 1.373-1.362.51-4.192 1.009-8.396 1.507-12.589.012-.058.012-.117.012-.176.036-.223 0-.54.292-.575.255-.035.328.258.413.446 2.005 3.793 4.01 7.586 6.028 11.38.085.163.109.445.328.445.255 0 .28-.305.364-.481 1.92-3.77 3.84-7.54 5.76-11.32.098-.2.147-.517.45-.458.28.047.207.352.231.552.474 3.886.936 7.773 1.398 11.66.024.235.048.47.097.693.255 1.292.717 1.68 2.078 1.762.158.011.328-.036.462.094-.049.246-.255.2-.425.2-1.191-.036-2.382-.083-3.573-.118-.328-.012-.608-.059-.316-.47.073-.094.06-.27.048-.4l-.984-9.746c-.012-.07-.049-.14-.06-.211-.268.023-.28.235-.341.376-1.714 3.323-3.403 6.658-5.116 9.993-.11.2-.146.493-.438.516-.304.024-.352-.281-.462-.481a165.641 165.641 0 0 1-5.128-9.711c-.097-.188-.134-.411-.365-.54-.036.046-.085.082-.097.129-.28 2.935-.547 5.883-.826 8.819-.012.082-.012.152-.025.234-.048 1.022.061 1.151 1.118 1.34.122.023.329-.036.316.164-.012.152-.182.129-.291.129h-3.828c-.073-.024-.146-.036-.207-.2zM115.195 26.027h5.279c-.025.276-.213.24-.338.264-.85.143-1.088.347-1.113 1.16-.113 3.351-.088 6.69-.025 10.04.012.659.025 1.317.075 1.975.087.933.325 1.137 1.276 1.197.15.012.287.012.437.024.113.012.226.047.213.167-.012.12-.138.132-.238.132h-4.69c-.163 0-.438.084-.438-.156 0-.191.263-.143.413-.143.525-.012.775-.276.888-.754.162-.67.15-1.353.162-2.023.013-1.412-.012-2.836.013-4.248.012-.443-.088-.634-.613-.622-2.752.024-5.504.024-8.256 0-.487 0-.65.144-.638.622.05 1.807.063 3.626.113 5.433.038 1.352.375 1.64 1.601 1.604.138 0 .338-.048.363.131.025.168-.15.156-.263.156h-4.94a.173.173 0 0 1-.176-.132c.025-.12.113-.143.225-.155.951-.156 1.001-.192 1.139-1.113.075-.527.112-1.065.125-1.604.012-3.267 0-6.534 0-9.813 0-.203 0-.394-.025-.598-.075-.933-.326-1.16-1.301-1.268-.163-.012-.338.012-.463-.12.25-.203 4.653-.251 5.116-.072-.025.156-.163.156-.275.18-.95.167-1.113.31-1.151 1.244-.05 1.412-.05 2.824-.075 4.248-.013.36.138.503.513.503 2.84-.012 5.666-.012 8.506 0 .337 0 .487-.096.487-.443-.025-1.412 0-2.836-.037-4.248-.025-.933-.3-1.185-1.263-1.292-.188-.024-.388.012-.626-.276zM129.38 16.924c0-1.693.012-3.325 0-4.956a282.115 282.115 0 0 0-.11-5.543c-.048-1.494-.231-1.68-1.694-1.843-.097-.012-.207 0-.256-.112.28-.224 4.23-.274 4.68-.062-.012.087-.073.137-.158.15-1.134.211-1.292.398-1.304 1.593-.025 4.21-.037 8.42-.061 12.641 0 .411.207 1.022-.207 1.184-.378.149-.683-.424-.988-.71-3.863-3.737-7.567-7.635-11.199-11.595-.085-.087-.17-.162-.365-.336 0 .734-.013 1.357 0 1.992.073 2.653.17 5.306.255 7.958.013.225.013.461.037.685.098 1.27.341 1.52 1.596 1.632.122.012.244-.013.403.212H115c.244-.312.536-.212.768-.262.487-.1.755-.386.816-.872.049-.386.086-.784.086-1.183.024-4.197.036-8.382.048-12.579 0-.149-.012-.286 0-.435.012-.175-.024-.411.195-.474.183-.05.293.112.402.224l3.193 3.338c1.865 1.968 3.741 3.923 5.606 5.891 1 1.059 1.999 2.13 2.998 3.188.06.125.158.187.268.274zM104.498 19.995c-2.272.062-4.36-.479-6.001-2.088-2.26-2.198-3-4.925-2.161-7.934.84-3.046 2.864-4.999 6-5.711a9.92 9.92 0 0 1 5.878.418c3.717 1.424 5.52 5.097 4.507 9.113-.975 3.77-4.16 6.19-8.223 6.202zm6.359-7.283c.05-2.137-.334-4.139-1.778-5.834-2.606-3.083-7.841-2.837-9.965.504-1.16 1.83-1.222 3.88-.852 5.932.383 2.1 1.395 3.832 3.272 4.974 2.643 1.61 6.038 1.118 7.878-1.154 1.062-1.278 1.395-2.8 1.445-4.422zM149.145 7.659c-.12-.098-.132-.221-.12-.344.072-1.878-2.221-3.315-4.18-2.222-1.08.601-1.476 2.013-.996 3.4.336.97.973 1.732 1.621 2.48 1.538 1.78 3.28 3.352 5.02 4.924.36.331.517.208.697-.16.409-.81.673-1.657.733-2.566.072-1.019-.3-1.46-1.297-1.608-.12-.012-.253 0-.3-.16.096-.22.3-.147.468-.147.66.024 1.32.049 1.981.098.71.062.781.16.697.884-.168 1.449-.805 2.689-1.645 3.83-.313.43-.313.639.12.946 1.14.835 2.27 1.67 3.615 2.148.468.16.96.221 1.441.283 0 .282-.168.258-.288.258-.937 0-1.886.024-2.823-.013-1.008-.037-1.801-.601-2.606-1.166-.18-.123-.384-.246-.528-.393-.288-.282-.48-.258-.793.025-1.825 1.62-3.975 2.16-6.33 1.67-1.777-.381-3.026-1.51-3.482-3.34-.456-1.842.156-3.425 1.465-4.739a6.4 6.4 0 0 1 1.237-.97c.228-.135.3-.245.132-.516-.852-1.313-1.2-2.7-.3-4.125.96-1.522 2.414-2.148 4.144-2.136.732.012 1.477.086 2.173.405.253.11.48.246.48.565-.011.823.013 1.633-.155 2.443 0 .098-.012.197-.18.246zm-7.47 6.273c-.012 2.664 1.297 4.445 3.183 4.85 1.621.356 3.086-.05 4.444-.97.42-.283.42-.467.024-.798-2.018-1.682-3.916-3.5-5.549-5.574-.204-.258-.348-.258-.588-.061-.973.798-1.502 1.829-1.514 2.553zM193 40.743c-1.933.64-4.404.048-5.664-1.362-1.247-1.386-2.385-2.843-3.523-4.312-.269-.343-.562-.521-1.027-.497a18.96 18.96 0 0 1-1.835-.012c-.355-.024-.477.106-.477.438.024 1.398.024 2.796.098 4.193.061 1.114.293 1.28 1.456 1.374.159.012.44-.094.415.178-.012.19-.269.119-.415.119h-4.343c-.147 0-.38.07-.38-.166 0-.178.221-.142.356-.142.611 0 .856-.344.941-.877a9.346 9.346 0 0 0 .135-1.647v-9.938c0-.26 0-.51-.037-.77-.073-.616-.379-.9-1.015-.983-.232-.036-.49.035-.685-.142.049-.225.245-.202.391-.19 1.958.166 3.903-.06 5.86.047 1.15.072 2.275.273 3.168 1.067 1.346 1.208 1.529 3.008.538 4.726-.416.734-.966 1.362-1.602 1.919-.257.225-.306.39-.061.675 1.32 1.528 2.593 3.092 4.012 4.537.93.948 1.994 1.623 3.413 1.587.06 0 .122.024.17.048.025.024.05.059.111.13zm-12.526-10.59v2.903c-.061.461.183.674.636.757a8.92 8.92 0 0 0 1.945.154c1.272-.035 2.092-.651 2.471-1.836.147-.474.22-.96.232-1.457.062-2.049-.917-3.459-2.715-3.909-.636-.166-1.297-.083-1.945-.059-.453.024-.648.213-.636.675.036.924.012 1.848.012 2.772zM127.251 26c-.123.294-.345.235-.518.247-.604.047-.912.376-.924.905-.062 3.127-.296 6.266.136 9.381.234 1.682 1.22 2.951 2.946 3.445 1.849.529 3.587.247 4.992-1.152.85-.858 1.11-1.963 1.196-3.08.197-2.775.148-5.56.037-8.335-.037-.823-.32-1.082-1.208-1.176-.173-.023-.358-.059-.53-.082 0-.047 0-.094.012-.141H138c-.025.235-.21.188-.333.211-.826.153-1.06.341-1.072 1.164-.037 2.152-.025 4.303-.037 6.466 0 .964-.099 1.916-.32 2.857-.518 2.175-1.96 3.491-4.155 4.044a8.116 8.116 0 0 1-4.672-.212c-2.12-.729-3.13-2.292-3.451-4.338-.197-1.222-.099-2.457-.111-3.691-.025-1.587-.025-3.174-.037-4.761-.012-1.14-.197-1.352-1.38-1.517-.136-.023-.296-.012-.432-.235h5.251zM96.897 25.01c1.308-.086 2.997.404 4.723.539.305.025.42.196.368.453-.19 1.017-.076 2.034-.165 3.05-.012.135.013.32-.19.331-.152.013-.216-.122-.216-.257.025-2.009-1.384-2.695-3.072-3.087-1.765-.404-3.53-.392-5.269.135-2.412.723-3.606 2.45-3.948 4.777-.445 3.075.444 5.672 3.072 7.559 2.12 1.531 4.558 1.764 7.071 1.262 1.194-.233 1.968-.98 2.273-2.144.038-.16.089-.319.14-.466.025-.085.101-.159.177-.122.064.024.14.122.127.184-.063 1.016-.203 2.033-.596 2.989-.077.171-.28.245-.47.294-3.58.735-7.122.857-10.36-1.115-2.945-1.789-3.935-4.545-3.44-7.73.495-3.234 2.463-5.39 5.789-6.272 1.18-.306 2.361-.38 3.986-.38zM165 25.177c.833-.142 1.515-.012 2.197-.024 2-.023 4 .165 6-.141.22-.036.37 0 .313.247-.173.649-.127 1.333-.231 1.981-.023.118-.046.26-.185.26-.139-.012-.139-.154-.162-.271-.173-.932-.3-1.085-1.191-1.227-.948-.141-1.92-.094-2.88-.094-.288 0-.346.188-.346.424v4.894c0 .33.162.448.463.436 1.04-.035 2.08-.07 3.121-.07.417 0 .671-.33 1.087-.496-.092.979-.185 1.887-.277 2.83-.3-.106-.255-.306-.266-.471-.058-.625-.428-.908-.994-.944-.88-.059-1.77-.082-2.648-.13-.347-.023-.486.13-.486.484.035 1.675-.058 3.337.046 5.012.058.86.382 1.179 1.226 1.261.694.071 1.387.071 2.081.012 1.157-.094 1.48-.353 1.792-1.462.035-.13 0-.377.232-.318.15.035.104.236.092.365-.046.472-.092.944-.162 1.403-.115.743-.242.873-.982.861-1.446-.023-2.891-.07-4.337-.094-.89-.012-1.769.012-2.659 0-.139 0-.37.07-.393-.118-.035-.236.22-.177.347-.177.543-.012.775-.318.879-.825.115-.578.127-1.168.127-1.757.011-3.278 0-6.568 0-9.847 0-.212-.012-.436-.023-.648-.058-.708-.347-1.014-1.053-1.085-.208-.035-.427 0-.728-.271zM149 27.547c.114-.848.33-1.613.57-2.378.063-.188.227-.2.417-.13.62.236 1.279.236 1.924.248 3.203.047 6.405.059 9.608-.012.126 0 .253-.012.38-.035 1.126-.13 1.151-.13 1.076.953-.038.506.075 1.024-.14 1.6-.126-.14-.19-.176-.202-.223-.342-1.059-.608-1.294-1.785-1.377-1.076-.07-2.152-.082-3.215-.117-.355-.012-.544.058-.544.447.05 3.837-.064 7.685.063 11.522.012.212.038.436.063.647.089.66.38.907 1.114.977.278.024.582-.047.873.13-.1.247-.303.188-.48.188h-4.558c-.151 0-.405.07-.443-.118-.038-.235.228-.176.368-.176.645 0 .898-.377.962-.883.076-.541.139-1.094.139-1.636.012-3.472-.013-6.944.025-10.404 0-.553-.177-.718-.747-.683a73.876 73.876 0 0 1-3.215.094c-.873.012-1.494.342-1.848 1.095-.038.106-.089.224-.405.27zM140.204 37.162c.286.196.202.393.214.565.036.528.203.994.512 1.412.951 1.252 3.39 1.46 4.603.405 1.237-1.08 1.273-2.873.083-4.26-.82-.958-1.855-1.658-2.795-2.469-.737-.626-1.44-1.301-1.88-2.185-1.32-2.665.191-5.354 3.13-5.6 1.093-.097 2.176.05 3.246.283.131.025.31.037.31.221-.024.848-.072 1.682-.12 2.677-.356-.356-.297-.688-.38-.958-.119-.368-.262-.7-.57-.896-1.119-.724-2.32-.86-3.51-.282-1.213.589-1.57 2.222-.785 3.352.702 1.019 1.69 1.719 2.629 2.468.583.466 1.154.933 1.677 1.473 1.297 1.35 1.784 2.934 1.166 4.764-.63 1.879-2.094 2.64-3.89 2.824-1.106.11-2.212.025-3.283-.393-.392-.147-.583-.38-.559-.81.012-.847-.036-1.695.202-2.591zM83.395 28.076c-.178-.098-.143-.282-.167-.43-.142-1.006-.76-1.534-1.664-1.767a4.108 4.108 0 0 0-1.77-.073c-1.724.33-2.485 2.16-1.498 3.657.559.859 1.39 1.448 2.163 2.086.701.576 1.415 1.104 2.056 1.754 1.332 1.363 1.843 2.946 1.225 4.799-.63 1.865-2.08 2.65-3.875 2.847-1.106.122-2.21.036-3.28-.38-.417-.16-.607-.406-.583-.872.048-.712.071-1.424.107-2.148.012-.135 0-.33.19-.319.202.013.13.209.143.344.142 1.473.82 2.258 2.222 2.54 1.57.332 2.936-.22 3.554-1.423.547-1.056.297-2.455-.606-3.449-.725-.822-1.593-1.46-2.437-2.147-.618-.503-1.212-1.055-1.711-1.681-.559-.7-.915-1.485-.963-2.393-.13-2.234 1.367-3.854 3.673-4 1.058-.074 2.092.06 3.126.281.154.037.344.037.344.258-.035.81-.095 1.62-.142 2.442-.012.037-.071.062-.107.074zM64.545 5.81v1.02c0 .098-.036.22-.155.196-.06-.012-.119-.11-.13-.172-.096-.307-.132-.651-.263-.934-.452-.97-2.2-1.475-3.52-1.045-1.166.394-1.76 1.377-1.594 2.593.083.578.357 1.033.737 1.438.845.934 1.868 1.647 2.831 2.434.476.393.94.823 1.344 1.29 1.154 1.327 1.523 2.864.916 4.547-.63 1.733-1.962 2.557-3.687 2.753-1.154.135-2.296.099-3.402-.332-.428-.16-.654-.38-.618-.897.06-.688.06-1.388.083-2.089.012-.16-.012-.393.178-.393.238-.012.155.233.167.38.119 1.598.999 2.434 2.76 2.619 1.534.16 2.854-.664 3.199-2.04.297-1.205-.095-2.213-.916-3.073-.963-1.02-2.117-1.782-3.14-2.716-.63-.578-1.178-1.217-1.523-2.016-1.034-2.42.286-4.866 2.82-5.284 1.26-.21 2.485-.012 3.71.209.274.049.298.221.274.442a20.28 20.28 0 0 1-.071 1.07zM72 19h-4.932c0-.205.101-.217.192-.229.857-.157.959-.265 1.06-1.169.159-1.373.113-2.759.113-4.144 0-2.59 0-5.18-.045-7.771-.022-1.145-.146-1.241-1.219-1.458C67.09 4.217 67.034 4.18 67 4h4.458c-.034.265-.192.217-.316.241-.801.169-.993.386-1.004 1.301-.023 1.29-.034 2.566-.034 3.856.011 2.566-.09 5.144.068 7.698.09 1.482.135 1.482 1.523 1.651.09.036.18.036.305.253z"/>
        <path d="M17.002 45.945c.03-.586.435-.964 1.038-.944.583.02.98.447.96 1.023-.01.597-.466 1.004-1.069.974-.573-.03-.96-.457-.93-1.053zm.613.636c.366.249.366.249.761.01-.277-.03-.277-.348-.494-.457-.08.179.01.437-.267.457 0-.268.02-.527 0-.795-.01-.259.079-.348.336-.348.445.01.554.14.376.557-.07.159-.02.248.05.357.029.06.078.12.157.09.139-.07.149-.209.169-.338.04-.388-.08-.696-.455-.835-.356-.13-.673-.01-.84.308-.199.378-.218.755.207.994z"/>
    </g>
</svg>
