<svg xmlns="http://www.w3.org/2000/svg" width="124" height="101" viewBox="0 0 124 101">
    <g fill="#000" fill-rule="nonzero">
        <path d="M123.987 93H.69C0 93 0 93 0 92.18 0 91 0 91 .996 91h122.225c.255 0 .524.03.779.045-.013.656-.013 1.298-.013 1.955zM22.803 74.962c-1.373-2.878-2.593-5.705-3.492-8.672-1.463-4.835-2.336-9.772-2.31-14.824.012-3.569.641-7.074 1.669-10.501 3.209-10.68 9.538-19.033 18.974-25.031 5.777-3.671 12.094-5.858 18.885-6.613 7.254-.793 14.379-.166 21.209 2.443 14.686 5.615 24.161 15.937 28.077 31.17 1.18 4.618 1.45 9.337.937 14.07-.283 2.673-1.014 5.27-1.875 7.802-1.155 3.44-2.567 6.792-3.838 10.194-.206-.038-.257-.192-.334-.307-2.953-3.888-5.905-7.764-8.833-11.678-1.553-2.085-2.927-4.31-4.506-6.382-1.065-1.407-2.26-2.699-3.415-4.042-.552-.64-1.232-1.023-2.08-1.125a1.643 1.643 0 0 1-.975-.448c-.308-.294-.68-.46-1.079-.576-.218-.064-.449-.128-.616-.307-1.207-1.343-2.709-2.353-3.992-3.607-1.015-.997-2.016-1.995-2.876-3.133-.372-.5-.847-.806-1.477-.985-.962-.282-1.733-.947-2.477-1.586a53.56 53.56 0 0 1-3.223-2.93c-1.04-1.035-3.004-.895-4.044-.217-2.041 1.33-3.838 2.955-5.725 4.477-1.76 1.407-3.48 2.827-5.226 4.246-.256.205-.513.41-.719.678-.23.295-.539.422-.911.41l-.59-.039c-.797-.064-1.426.154-2.016.78-6.933 7.368-13.25 15.26-19.874 22.895-1.078 1.267-2.144 2.533-3.248 3.838zM82.81 28.225c-.398 0-.706.026-1.027-.013-.373-.038-.552.116-.706.448-.463 1.023-.95 2.021-1.425 3.031a3.349 3.349 0 0 1-1.657 1.625c-.102.051-.218.128-.32.051-.103-.077-.078-.217-.052-.32a1.81 1.81 0 0 1 .129-.37c.513-1.254 1.027-2.495 1.54-3.748.295-.717.295-.704-.5-.755-.437-.038-.694.051-.86.499-.219.563-.681.92-1.259 1.113-.295.102-.526.14-.526-.333 0-.844-.462-1.343-1.284-1.51-.847-.165-1.592.129-2.298.564-1.143.716-1.836 1.777-2.272 3.018-.257.716-.642 1.33-1.22 1.83-.167.153-.347.383-.59.217-.232-.167-.026-.397.05-.576.54-1.266 1.092-2.532 1.657-3.799.115-.268.218-.537.013-.793-.206-.243-.501-.256-.822-.217-.745.115-1.4.422-2.041.806-.424-.908-.886-1.062-1.785-.665-.475.217-.937.434-1.386.78.013-.333.282-.525.27-.857-.283 0-.565.025-.835-.013-.398-.051-.578.115-.745.46-.449.985-.911 1.97-1.4 2.942-.294.589-.641 1.151-1.296 1.433-.205.09-.41.192-.603.025-.18-.153-.013-.345.038-.498.411-1.356 1.092-2.61 1.657-3.902.128-.28.09-.396-.219-.46-.667-.14-1.335-.18-2.002.051-.77.269-1.503.601-2.17 1.062-.27.179-.54.37-.822.537-.09.051-.23.102-.32.026-.116-.103-.014-.205.038-.307.103-.205.244-.397.32-.614.103-.307.424-.678.052-.934-.334-.23-.642.115-.899.307-.41.307-.808.652-1.206.972-.026-.013-.039-.038-.065-.051.129-.294.244-.589.398-.934-.333 0-.603.026-.885 0-.334-.038-.54.077-.668.41-.257.6-.552 1.189-.86 1.777-.514.985-1.245 1.817-2.067 2.558-.141.128-.321.282-.526.115-.18-.14-.154-.345-.103-.55.038-.14.103-.28.167-.409.5-1.164.988-2.328 1.502-3.492.141-.32.103-.46-.257-.524-.847-.166-1.63-.013-2.413.307-1.297.524-2.26 1.47-3.133 2.507a3.801 3.801 0 0 0-.86 1.803c-.103.614.026 1.203.565 1.586.513.371 1.027.103 1.476-.166.45-.269.873-.575 1.335-.908-.038.448-.064.87.373 1.113.475.268.847-.013 1.232-.256.565-.345 1.027-.806 1.656-1.28-.23.525-.41.935-.616 1.395.27 0 .475-.026.668 0 .475.064.744-.102.95-.55.372-.806.796-1.599 1.232-2.366.308-.525.68-1.023 1.066-1.599.102.448.012.819.423 1.01.36.167.655-.038 1.002-.102-.244.397-.475.73-.68 1.087-.27.474-.514.96-.527 1.522-.013.742.436 1.177 1.18 1.126.45-.026.861-.192 1.233-.46.296-.205.604-.41.925-.64.102.972.629 1.33 1.45 1.036.257-.09.463-.243.68-.397.283-.204.553-.409.9-.665-.296.998-.296.972.629.998.372.013.552-.102.693-.448.385-.959.821-1.905 1.245-2.852.321-.703.745-1.317 1.45-1.701.168-.09.335-.333.566-.128.205.18.013.371-.064.537a244.512 244.512 0 0 1-1.85 4.196c-.14.307-.089.422.258.396.256-.026.526-.026.796 0 .346.038.526-.102.667-.422.462-1.074.963-2.123 1.464-3.185.282-.575.603-1.138 1.142-1.522.206-.153.45-.307.68-.128.232.18.014.397-.063.576-.514 1.176-1.053 2.34-1.567 3.517-.334.768.052 1.343.873 1.394a1.724 1.724 0 0 0 1.387-.524c.282-.282.513-.601.809-.96.757 1.753 1.72 2.034 3.196 1.139 1.425-.87 2.44-2.047 2.902-3.658.051-.154.077-.32.295-.333.308-.012.616-.064.963-.09-.411 1.011-.809 1.97-1.207 2.955-.154.384-.231.768.128 1.088.334.307.707.243 1.104.115.655-.205 1.207-.627 1.81-.972.155.972.54 1.202 1.451.984.617-.14 1.04-.588 1.63-.959-.192.358-.333.64-.513.985.373 0 .642-.026.925 0 .423.051.642-.115.821-.499.527-1.1 1.014-2.213 1.656-3.261.411-.678.963-1.215 1.746-1.458.116-.039.244-.141.373-.026.115.102.051.243.013.37-.129.512-.411.973-.642 1.446-.373.78-.77 1.56-1.13 2.354-.129.281-.18.614.077.882.244.269.54.205.873.14.809-.178 1.528-.55 2.26-.971 0 1.343 1.668 2.187 2.785 1.458.835-.537 1.387-1.28 1.939-2.06-.372-.178-.59-.089-.783.218a3.648 3.648 0 0 1-1.22 1.202c-.347.218-.745.448-1.104.18-.385-.295-.167-.73-.013-1.088.527-1.228 1.104-2.43 1.592-3.67.257-.653.552-1.088 1.335-.909.052.013.103 0 .154 0 .308-.038.347-.32.36-.511.013-.205-.231-.09-.36-.115-.192-.039-.385.038-.603-.064.347-.78.68-1.56 1.04-2.392-.424 0-.745.013-1.079 0-.295-.026-.475.064-.59.37-.193.512-.475.973-.655 1.484-.167.474-.436.704-.95.602-.36-.077-.552.115-.552.434 0 .359.308.18.475.192.257.013.321.077.205.32-.526 1.023-1.04 2.06-1.579 3.07-.256.499-.68.844-1.18 1.1-.219.102-.501.243-.694.05-.218-.217-.077-.498.064-.728.63-1.087 1.13-2.238 1.682-3.351.385-.768.077-1.215-.783-1.164a1.983 1.983 0 0 0-.475.115c-.63.179-1.181.55-1.836.92.039-.153.051-.217.064-.268.167-.563.167-.563-.423-.563-.077 0-.167.013-.244 0-.463-.09-.706.141-.912.538-.513.997-1.065 1.97-1.618 2.941-.32.563-.757 1.036-1.245 1.471-.18.154-.41.32-.616.192-.231-.14-.039-.383.013-.575.038-.141.115-.269.167-.41.59-1.317 1.18-2.647 1.823-4.08zM42.92 24.746c-.154-.166-.296-.102-.424-.051-.462.166-.911.397-1.284.742a9.239 9.239 0 0 0-2.246 3.095c-.796 1.752-1.541 3.53-2.298 5.295-.296.678-.63 1.33-1.092 1.919-1.527 1.919-3.376 2.993-5.93 2.507-1.118-.217-1.631-1.343-.977-2.264.129-.179.257-.345.373-.524.244-.41.218-.832-.039-1.215-.23-.359-.616-.41-1.014-.359-.347.039-.616.218-.847.46-.848.896-.758 2.265.218 3.237 1.001.997 2.247 1.42 3.646 1.356 1.772-.09 3.453-.55 4.994-1.458 1.066-.627 1.939-1.459 2.568-2.546.654-1.125 1.283-2.25 1.669-3.504.064-.205.154-.333.385-.384.744-.166 1.476-.358 2.208-.525 1.065-.243 2.003-.754 2.85-1.432 1.322-1.062 2.08-3.019.706-4.924-1.04-1.446-2.516-2.162-4.185-2.507-3.03-.614-5.996-.192-8.833.959-2.08.844-3.774 2.162-4.57 4.374-.578 1.612-.206 3.044.898 4.247 1.67 1.803 4.853 1.509 6.355-.039.219-.217.373-.473.462-.754.142-.448.155-.896-.256-1.215-.334-.256-.758-.307-1.117-.103-.45.243-.54.678-.398 1.151.128.423 0 .793-.308 1.075-.732.678-1.567.844-2.517.524-.834-.268-1.322-.844-1.502-1.675-.18-.806 0-1.574.257-2.328 1.72-4.976 6.599-6.754 10.733-5.845 1.9.409 3.158 1.7 3.312 3.58.116 1.472-.565 2.75-1.643 3.761-.578.55-1.258.96-2.067 1.113-.347.064-.578.038-.398-.435.218-.614.346-1.266.539-1.893.372-1.24.732-2.507 1.772-3.415z"/>
        <path d="M64 44c.314.127.389.343.502.533 1.078 1.892 2.22 3.758 3.21 5.701 1.706 3.39 3.775 6.577 5.28 10.069.1.24.214.482.289.723.1.305.05.622-.226.775-.464.254-.476.647-.426 1.079.025.216.037.432.1.622.652 1.752 1.129 3.593 2.082 5.206.414.685.84 1.333.99 2.133.064.355.076.71.114 1.066.025.19-.038.318-.213.394-.314.14-.364.38-.251.686.564 1.46.74 3.047 1.442 4.456.163.33.188.457-.276.533-.94.165-1.141-.57-1.43-1.13a15.302 15.302 0 0 1-.928-2.31c-.99-3.01-2.282-5.892-3.436-8.825a41.097 41.097 0 0 1-1.054-2.945c-.25-.775-.69-1.283-1.505-1.384-.815-.114-1.216-.572-1.53-1.346-.69-1.727-.978-3.542-1.442-5.32-.226-.863-.477-1.727-.878-2.527-.251-.495-.251-.977.163-1.345.89-.8.853-1.727.502-2.756-.377-1.104-.678-2.247-1.004-3.377-.037-.216-.037-.432-.075-.711zM73 50c.309.101.515.304.708.52 1.802 1.966 3.604 3.919 5.393 5.885.27.292.502.609.76.9.463.495.681 1.078.604 1.75-.077.635.27 1.028.695 1.434 1.378 1.319 2.768 2.625 4.26 3.817.258.216.374.533.516.825.347.697.772 1.331 1.377 1.839.154.127.257.291.347.469 1.326 2.46 2.639 4.934 3.965 7.394.193.355.399.71.373 1.167-.335-.063-.476-.317-.63-.545-1.623-2.372-3.528-4.528-5.304-6.786-.824-1.052-1.866-1.75-3.179-2.016a1.525 1.525 0 0 1-.952-.622c-1.43-1.915-2.832-3.83-3.81-6.05-.708-1.585-1.352-3.246-2.549-4.603-.437-.495-.76-1.142-.682-1.89.039-.393-.219-.71-.412-1.028-.36-.583-.746-1.154-1.107-1.737-.141-.228-.257-.482-.373-.723zM51.926 53c.152.288.038.513-.063.712-.216.463-.431.938-.672 1.388-.798 1.5-1.064 3.087-.925 4.762a.766.766 0 0 1-.101.45c-.976 1.675-1.952 3.35-2.915 5.026a1.14 1.14 0 0 1-.456.425c-.875.424-1.457 1.112-1.838 1.987-.215.487-.532.925-.874 1.325-.38.438-.735.9-.976 1.438-.177.374-.443.687-.773.974-.824.713-1.723 1.376-2.243 2.513-.19-.4-.038-.625.076-.825.47-.862.95-1.725 1.42-2.587.304-.538.52-1.113.62-1.713.038-.225.076-.45.178-.65a17.311 17.311 0 0 0 1.343-3.2c.076-.25.304-.45.482-.663.177-.224.253-.474.088-.712-.177-.275-.126-.525-.012-.788.088-.224.19-.45.33-.637 1.19-1.712 2.394-3.413 3.598-5.113.165-.237.342-.474.596-.637 1.026-.625 1.698-1.575 2.331-2.563.216-.337.457-.65.786-.912zM93.285 19c-.234-.9-.43-1.66-.603-2.432-.062-.283-.185-.386-.455-.373-.726.013-1.452 0-2.178 0-.012-.064-.037-.129-.049-.193.541-.373 1.07-.772 1.636-1.107.406-.231.505-.476.357-.94A9.006 9.006 0 0 1 91.575 12c.492.399 1.008.772 1.464 1.21.344.334.602.386.996.051.517-.437 1.107-.785 1.76-1.248-.185.785-.308 1.467-.517 2.11-.148.45-.037.72.307 1.004.455.373.874.81 1.415 1.312-.775 0-1.415.026-2.054-.013-.357-.012-.53.116-.677.45-.295.683-.615 1.34-.984 2.124zM29 72.925c1.263-1.67 2.54-3.338 3.802-5.007 1.342-1.77 2.684-3.527 4.013-5.296 1.29-1.732 3.039-3.024 4.683-4.417.119-.1.29-.289.435-.163.17.138-.027.326-.119.464-1.486 2.096-2.973 4.191-4.473 6.287-.132.188-.329.289-.526.364-.605.2-1.04.59-1.434 1.029-1.947 2.12-3.908 4.241-5.868 6.362L29.08 73 29 72.925zM113.976 67.316c-.735.038-1.469.09-2.203.115-.27.013-.392.103-.465.36-.233.706-.49 1.4-.771 2.209-.245-.642-.514-1.182-.661-1.747-.16-.616-.465-.796-1.04-.732-.551.064-1.126.013-1.836.013.6-.501 1.09-.925 1.59-1.323.27-.205.331-.411.221-.745-.22-.706-.391-1.426-.612-2.248.71.488 1.346.9 1.958 1.336.22.154.367.154.563-.026.563-.488 1.15-.963 1.848-1.528-.208.86-.367 1.593-.575 2.3-.11.359-.012.526.27.706.587.372 1.162.783 1.737 1.181-.012.052-.024.09-.024.129zM104 74.756c.596-.3 1.18-.624 1.775-.899.292-.137.343-.287.292-.599-.14-.71-.228-1.422-.355-2.258.66.524 1.243.96 1.8 1.435.292.25.508.3.85.087.596-.35 1.23-.649 1.966-1.023-.368.774-.672 1.448-1.015 2.096-.14.275-.114.437.115.65.532.51 1.04 1.06 1.572 1.609-.723-.088-1.458-.15-2.181-.287-.38-.075-.507.075-.647.374-.304.649-.634 1.285-1.014 2.059-.165-.861-.317-1.572-.419-2.296-.05-.362-.203-.474-.558-.511-.723-.088-1.433-.213-2.156-.325-.012-.037-.012-.075-.025-.112zM81 5.432c-.77.333-1.526.667-2.295.988-.256.11-.346.234-.308.506.09.679.141 1.346.116 2.074-.487-.556-.975-1.086-1.436-1.654-.205-.247-.385-.309-.705-.198-.654.247-1.32.457-2.064.593.346-.556.68-1.136 1.051-1.68.192-.27.167-.456-.038-.715C74.885 4.827 74.5 4.284 74 3.63c.859.197 1.603.345 2.32.543.295.074.436.012.603-.222.41-.618.86-1.223 1.36-1.951.038.864.102 1.58.102 2.309 0 .32.128.432.423.506.73.16 1.461.345 2.192.518v.1zM11.18 51c.076-.84.128-1.568.217-2.284.039-.309-.064-.457-.359-.568-.692-.26-1.384-.555-2.038-.938.718-.16 1.423-.346 2.141-.482.308-.061.449-.16.462-.469.05-.703.166-1.42.256-2.259.462.654.872 1.21 1.244 1.778.166.259.333.37.68.296a12.51 12.51 0 0 1 2.217-.26c-.359.396-.718.79-1.077 1.174-.73.802-.73.802-.18 1.716.257.42.513.852.847 1.382-.782-.32-1.462-.592-2.128-.888-.321-.149-.526-.124-.757.148-.461.555-.961 1.05-1.526 1.654zM11.9 60c-.103-.843-.218-1.551-.256-2.26-.025-.342-.166-.452-.485-.513A15.94 15.94 0 0 1 9 56.689c.664-.28 1.316-.586 1.993-.855.319-.122.447-.256.383-.623-.115-.684-.166-1.393-.256-2.211.588.61 1.099 1.112 1.572 1.65.242.268.434.33.779.17a13.457 13.457 0 0 1 2.082-.794c-.383.623-.754 1.258-1.162 1.87-.18.28-.167.451.063.683.499.513.971 1.063 1.546 1.71-.74-.146-1.367-.22-1.967-.39-.537-.147-.856-.05-1.111.464-.243.525-.614 1.014-1.022 1.637zM88.004 6.037c-.111.7-.21 1.388-.333 2.088-.062.313 0 .5.308.65.64.325 1.27.7 2.021 1.125-.875.125-1.614.25-2.366.325-.32.037-.42.162-.469.475-.098.725-.234 1.438-.382 2.3-.37-.738-.702-1.338-.96-1.963-.186-.437-.408-.562-.863-.462a9.072 9.072 0 0 1-1.96.188c.48-.45.949-.913 1.454-1.35.222-.2.234-.35.111-.613-.32-.65-.604-1.325-.949-2.113.777.338 1.442.625 2.095.925.271.125.444.113.666-.112.493-.513 1.023-1 1.528-1.5.037.013.062.025.099.037zM109 26.888c-.473.517-.934 1.045-1.432 1.55-.262.25-.312.452-.125.792.349.617.648 1.26 1.034 2.015-.635-.303-1.158-.542-1.682-.794-.81-.377-.81-.377-1.457.29-.374.39-.772.768-1.258 1.259.112-.755.2-1.372.299-2.002.112-.717.125-.717-.536-1.045-.585-.29-1.158-.591-1.843-.944.835-.151 1.557-.315 2.28-.39.41-.038.498-.227.522-.58.063-.667.162-1.334.35-2.039.336.604.697 1.196.996 1.826.174.365.386.428.76.34.672-.152 1.345-.24 2.03-.353.012.013.037.05.062.075zM33.01 12c-.193.85-.345 1.563-.538 2.25-.097.338 0 .488.317.65.705.362 1.396.762 2.211 1.225-.981.087-1.81.175-2.653.212-.373.013-.525.138-.594.463-.152.688-.36 1.375-.58 2.2-.332-.7-.65-1.288-.87-1.9-.18-.488-.47-.625-1.01-.563-.704.088-1.409.126-2.293.188.69-.563 1.23-1.05 1.838-1.475.373-.275.414-.512.207-.887-.332-.613-.594-1.263-.953-2.025.787.45 1.478.812 2.114 1.225.331.212.538.162.815-.063.594-.488 1.23-.938 1.99-1.5zM22 28.212c-.664.306-1.327.625-2.004.92-.3.134-.438.27-.375.637.112.686.163 1.385.25 2.231-.588-.637-1.09-1.165-1.565-1.716-.2-.233-.376-.258-.651-.123-.639.319-1.303.613-2.091.98.4-.735.7-1.384 1.076-1.985.2-.343.163-.552-.137-.797-.514-.43-1.002-.883-1.503-1.312.05-.061.088-.122.138-.184.739.123 1.465.221 2.191.368.25.05.376-.012.501-.22.288-.528.601-1.043.914-1.557.075-.123.163-.246.3-.454.126.81.251 1.496.314 2.194.025.331.188.417.463.479.726.134 1.44.294 2.166.44 0 .038 0 .062.013.099zM63.802 6.503c.284-.82.507-1.517.766-2.201.111-.298.099-.485-.173-.696-.494-.386-.95-.82-1.395-1.33.667.049 1.346.074 2.012.16.408.063.63-.024.766-.447.197-.634.457-1.243.753-1.989.21.82.407 1.504.555 2.2.074.336.198.473.556.486.74.024 1.47.124 2.358.211-.704.41-1.272.783-1.864 1.094-.395.211-.531.423-.383.883.21.646.333 1.318.519 2.126-.655-.584-1.235-1.057-1.778-1.579-.235-.224-.408-.249-.692-.075-.617.373-1.246.721-2 1.157zM53.025 2.891a67.844 67.844 0 0 1 2.246-.279c.25-.025.35-.101.4-.367.112-.736.261-1.471.498-2.245l.749 1.598c.362.76.362.76 1.198.697.574-.05 1.148-.101 1.884-.177-.599.558-1.086 1.052-1.61 1.483-.337.28-.374.52-.187.913.3.635.55 1.307.874 2.106-.774-.457-1.423-.825-2.06-1.218-.236-.14-.374-.14-.586.05-.549.495-1.11.977-1.771 1.548.174-.875.311-1.623.474-2.371.062-.254 0-.38-.225-.508-.636-.355-1.273-.735-1.909-1.103 0-.063.012-.101.025-.127zM113.067 60c-.456-.733-.85-1.356-1.22-1.991-.148-.257-.296-.33-.604-.245-.69.196-1.405.355-2.243.55.567-.672 1.023-1.246 1.504-1.808.172-.195.184-.342.036-.574a12.984 12.984 0 0 1-1.022-1.87c.653.257 1.306.514 1.947.795.296.134.468.098.678-.159.43-.55.887-1.087 1.405-1.698.049.806-.037 1.478-.087 2.162-.024.355.062.538.42.648.665.232 1.318.513 2.119.83-.764.184-1.393.367-2.033.49-.506.085-.715.305-.703.83-.012.647-.123 1.27-.197 2.04zM40.417 6.491c-.38.806-.685 1.498-1.015 2.165-.14.265-.089.416.114.63.533.541 1.027 1.12 1.484 1.624-.621-.088-1.357-.201-2.092-.315-.33-.05-.533 0-.685.34-.292.668-.66 1.297-1.053 2.065-.152-.83-.291-1.523-.38-2.216-.05-.352-.178-.49-.545-.529-.71-.075-1.408-.214-2.245-.352.786-.428 1.446-.806 2.118-1.146.228-.113.291-.239.24-.49-.139-.731-.253-1.461-.291-2.267.393.39.774.78 1.167 1.17.608.618.608.618 1.395.227.545-.29 1.116-.566 1.788-.906zM109.463 49.831c.387-.634.775-1.28 1.187-1.902.15-.224.137-.373-.05-.572-.525-.56-1.012-1.131-1.6-1.803.838.2 1.55.336 2.225.547.4.125.575.013.75-.323.338-.61.713-1.194 1.163-1.778.075.734.15 1.48.2 2.213.012.261.087.386.375.435.737.137 1.475.311 2.287.485-.463.311-.925.448-1.362.634-1.076.46-1.076.448-1 1.617.037.485.087.982.137 1.616-.563-.622-1.063-1.107-1.488-1.654-.287-.36-.55-.385-.937-.199-.587.274-1.212.498-1.813.746-.012-.012-.05-.037-.075-.062zM17.88 79c-.38-.745-.722-1.378-1.027-2.023-.127-.273-.253-.385-.583-.323-.736.124-1.484.199-2.27.298.52-.534 1.002-1.042 1.522-1.526.253-.236.304-.41.152-.72a12.626 12.626 0 0 1-.862-2.06c.684.347 1.37.694 2.041 1.067.28.161.444.136.66-.087.52-.521 1.065-1.018 1.699-1.626-.178.869-.317 1.613-.482 2.358-.063.273 0 .435.266.559.685.322 1.345.682 2.004 1.13-.672.086-1.344.198-2.016.26-.457.037-.685.173-.736.67-.076.633-.228 1.266-.368 2.023zM24.973 25c-.391-.62-.795-1.238-1.16-1.87-.164-.265-.316-.341-.618-.253-.694.202-1.413.354-2.195.455.34-.404.681-.821 1.022-1.226.63-.745.63-.745.126-1.566-.29-.48-.593-.96-.971-1.554.769.315 1.425.543 2.043.846.429.215.656.101.92-.253.417-.556.883-1.074 1.413-1.579-.05.657-.076 1.327-.164 1.984-.063.467.05.733.53.897.668.227 1.299.556 2.081.884-.845.177-1.551.354-2.258.468-.416.063-.567.24-.567.657 0 .695-.076 1.377-.114 2.072-.025.013-.05.025-.088.038zM10 67.077c.537-.351 1.048-.74 1.61-1.041.461-.251.536-.527.374-1.004-.212-.614-.35-1.267-.55-2.032.662.552 1.236.978 1.76 1.468.287.263.474.238.774.037a13.743 13.743 0 0 1 1.909-1.141c-.287.69-.561 1.392-.873 2.07-.125.276-.1.451.162.64.586.439 1.148.928 1.834 1.492-.799-.037-1.46-.025-2.109-.125-.536-.088-.723.15-.873.602-.2.627-.45 1.23-.711 1.957-.237-.84-.45-1.568-.65-2.296-.062-.25-.161-.363-.448-.376-.737-.025-1.473-.088-2.197-.138 0-.038 0-.075-.012-.113zM14.412 34c.301.872.577 1.615.79 2.359.1.32.251.397.552.385.728-.026 1.468-.013 2.246-.013-.602.474-1.18.936-1.781 1.359-.289.205-.314.384-.201.692.238.692.452 1.397.715 2.218-.715-.526-1.33-.949-1.907-1.397-.238-.193-.401-.167-.615.012-.564.45-1.141.885-1.806 1.244.188-.68.351-1.359.565-2.026.112-.359.075-.564-.251-.756A9.823 9.823 0 0 1 11 36.73c.753 0 1.493-.013 2.246.013.276.012.388-.09.464-.36.188-.73.426-1.487.702-2.384zM110.593 34c.224.802.448 1.464.585 2.138.1.484.323.624.783.598a9.247 9.247 0 0 1 2.039.102c-.584.407-1.156.84-1.753 1.222-.274.178-.348.344-.249.675.236.7.423 1.425.672 2.265-.697-.535-1.306-.98-1.878-1.464-.248-.203-.41-.19-.659 0-.609.459-1.243.891-1.99 1.426.312-.878.56-1.604.834-2.33.1-.254.062-.407-.162-.572-.597-.458-1.18-.942-1.815-1.45.696 0 1.33-.04 1.964.012.485.05.746-.064.896-.586.186-.649.46-1.272.733-2.036zM103.848 19.238c-.417.594-.82 1.213-1.263 1.794-.24.316-.278.544.012.86.468.505.872 1.074 1.403 1.73-.758-.201-1.377-.328-1.984-.543-.493-.164-.796-.1-1.074.367-.328.556-.745 1.049-1.238 1.554 0-.733-.013-1.478 0-2.211.013-.303-.076-.468-.404-.544-.733-.176-1.453-.391-2.3-.619.796-.303 1.466-.606 2.148-.808.417-.127.505-.341.48-.733-.05-.67-.076-1.352-.012-2.085.442.556.91 1.112 1.326 1.693.215.316.417.367.771.228.67-.278 1.365-.506 2.047-.759a.55.55 0 0 1 .088.076zM51 3.313c-.537.712-.973 1.325-1.446 1.912-.205.263-.23.438-.013.7.448.55.858 1.125 1.357 1.788-.768-.138-1.382-.363-1.971-.588-.525-.2-.858-.138-1.177.35-.32.513-.755.95-1.216 1.525 0-.838-.013-1.563.013-2.275.012-.313-.09-.45-.397-.537-.691-.2-1.37-.45-2.15-.713.589-.275 1.139-.35 1.65-.487.973-.263.986-.263.986-1.226V2.038c.039-.013.064-.025.103-.038.422.6.857 1.188 1.266 1.788.18.275.346.35.679.237.716-.263 1.459-.45 2.316-.713zM93.994 71c-1.271-1.538-2.479-3.025-3.7-4.499-1.029-1.253-2.046-2.507-3.088-3.748-.267-.324-.445-.66-.394-1.125.05-.543-.23-1.021-.509-1.474-.356-.581-.75-1.137-1.106-1.706-.089-.13-.229-.246-.19-.44.14-.038.216.065.292.143 1.602 1.577 3.292 3.05 4.589 4.899.241.349.42.71.42 1.138 0 .504.177.93.444 1.344a387.893 387.893 0 0 1 3.051 4.873c.077.168.23.298.191.595zM90.412 98c.55.946 1.045 1.804 1.54 2.663.042.065.083.13 0 .185-.165.12-1.031-.022-1.128-.185-.151-.26-.302-.533-.495-.87-.275.424-.509.794-.784 1.207-.289-.413-.523-.772-.825-1.196-.4.576-.468 1.424-1.72 1 .523-.891 1.045-1.804 1.61-2.793.33.489.605.913.921 1.38.275-.456.55-.88.88-1.391zM56.52 101c-.273-.435-.506-.793-.766-1.196-.439.522-.48 1.424-1.754.99.534-.903 1.069-1.816 1.644-2.794l.877 1.391c.287-.456.561-.87.85-1.326.314.294.437.63.616.935.328.522.616 1.065.945 1.587.123.206.096.272-.22.293-.534.033-.917-.043-1.04-.51-.055-.185-.192-.348-.316-.577-.287.414-.534.783-.835 1.207zM46.466 101c-.857-.011-1.466-.632-1.466-1.5 0-.846.7-1.511 1.534-1.5.823.023 1.466.7 1.466 1.523-.011.89-.643 1.488-1.534 1.477zm.045-2.177c-.36-.01-.699.327-.699.688 0 .384.293.677.688.688.372.011.677-.304.677-.699 0-.338-.316-.665-.666-.677zM80.466 101c-.857-.011-1.466-.634-1.466-1.494 0-.849.688-1.528 1.534-1.505.823.022 1.466.69 1.466 1.527-.011.883-.632 1.483-1.534 1.472zm.722-1.494c0-.351-.316-.68-.654-.69-.361-.012-.71.316-.71.679 0 .396.326.713.732.701.339 0 .632-.305.632-.69zM112 98c.72.453 1.333.838 2.027 1.29 0-.396.013-.701 0-.996-.014-.328.266-.249.453-.237.2.01.52-.125.52.237V101c-.693-.408-1.293-.781-2-1.2 0 .34-.013.611 0 .883.027.317-.227.272-.44.26-.213-.022-.56.136-.56-.249V98zM97.002 99.482c0-.385.014-.781 0-1.166-.015-.222.073-.327.382-.315.455.023.91-.012 1.366.023.78.047 1.264.478 1.25 1.062-.015.583-.47.944-1.294.933-.514-.012-.602.163-.573.501.015.152.118.385-.117.443-.28.059-.603.035-.897.012-.147-.012-.103-.175-.103-.268-.014-.408-.014-.817-.014-1.225zm1.116-.455c.089.105-.117.362.28.315.235-.023.529-.046.514-.326-.015-.245-.235-.315-.5-.35-.396-.024-.22.221-.294.361zM121.544 99.055c.263-.705.525-1.307 1.456-.948-.239.462-.477.948-.764 1.422a1.92 1.92 0 0 0-.274 1.192c.024.23-.12.3-.31.254-.203-.046-.621.174-.585-.185.071-.867-.49-1.48-.824-2.174-.06-.116-.131-.232-.19-.359-.037-.07-.084-.127-.025-.196.12-.116.907.011 1.003.173.167.231.31.474.513.821zM29.569 99.809l-.305.538c-.384.698-.384.698-1.264.606.52-.984 1.016-1.946 1.546-2.953.26.332.395.698.565 1.042.282.526.53 1.076.801 1.602.124.23.158.344-.18.355-.384.012-.632-.08-.768-.458-.09-.24-.248-.458-.395-.732zM13 98.104c1.052-.416 1.086.516 1.455 1.044.426-.472.493-1.46 1.545-1.044-.504.943-1.007 1.886-1.534 2.896A634.394 634.394 0 0 0 13 98.104zM105.51 98c.535 1.045 1.012 1.988 1.49 2.91-1.035.381-1.08-.563-1.513-1.08-.159.304-.295.562-.432.82-.136.26-.705.439-.978.304-.125-.056-.068-.135-.034-.213.478-.865.955-1.764 1.467-2.741zM104 80.52c0 1.47-1.049 2.493-2.52 2.48-1.431-.014-2.48-1.051-2.48-2.466 0-1.429 1.09-2.534 2.507-2.534 1.458 0 2.493 1.051 2.493 2.52zm-2.493 2.076c1.226 0 2.139-.89 2.139-2.09 0-1.226-.94-2.142-2.153-2.142-1.158 0-2.139.984-2.139 2.13 0 1.172.954 2.102 2.153 2.102zM1.5 99.816c-.367.617-.436 1.491-1.5 1.076.48-.93.961-1.872 1.5-2.892.205.392.388.729.571 1.065.286.538.561 1.076.858 1.603.103.202.126.292-.16.303-.389.022-.663-.056-.824-.449-.114-.235-.274-.437-.446-.706zM38.976 98.475c.05.225-.012.35-.356.35-.442.01-.76.371-.736.71.024.349.368.665.798.653.49-.022.257.293.294.474.05.225-.037.327-.319.338-.97.011-1.645-.586-1.657-1.477-.012-.868.7-1.51 1.633-1.522.417-.022.33.215.343.474zM71.989 98.476c.024.192.037.35-.346.35-.457-.012-.778.315-.778.675 0 .395.32.699.803.688.469-.012.284.27.32.462.05.259-.061.349-.357.349-.94-.011-1.618-.608-1.63-1.476-.013-.845.728-1.532 1.642-1.521.346-.011.358-.011.346.473zM22.998 99.506c0 .387-.027.785 0 1.171.027.363-.226.328-.492.316-.24-.011-.519.094-.506-.304.027-.796.027-1.593 0-2.389-.013-.398.28-.28.506-.293.253-.011.519-.046.492.317-.013.398 0 .796 0 1.182zM75 29.98c-.056.307-.078.628-.179.893-.459 1.352-1.007 2.648-1.846 3.708a1.34 1.34 0 0 1-.268.265c-.18.125-.38.237-.57.07-.18-.154-.146-.405-.101-.642.313-1.659.827-3.192 1.678-4.545a4.83 4.83 0 0 1 .2-.278c.225-.307.504-.558.829-.405.324.182.134.642.257.934zM46.003 32.414c.097-.613.569-1.182 1.083-1.74.527-.58 1.138-1.105 1.93-1.473.208-.1.43-.201.694-.201.264 0 .36.067.236.29-.736 1.25-1.597 2.432-2.763 3.459a.94.94 0 0 1-.5.234c-.528.067-.708-.056-.68-.569zM56 32.5c.078-.224.156-.57.312-.872.434-.817.969-1.566 1.659-2.18.278-.247.668-.582.958-.392.211.134-.1.593-.256.86-.49.85-.891 1.745-1.493 2.517-.178.223-.4.369-.634.503-.29.168-.546 0-.546-.436z"/>
        <path d="M101.037 80.524v-.172c.047-.43-.175-1.09.117-1.219.433-.2.983-.157 1.462.015.328.129.503.673.292 1.046-.163.287-.128.487-.046.76.07.215.058.473.07.702.012.143.093.344-.14.344-.164 0-.305 0-.351-.23-.024-.1-.024-.214-.024-.329-.023-.588-.257-.774-.725-.645-.164.043-.175.172-.175.315v.602c0 .23-.094.273-.258.273-.152 0-.21-.086-.21-.273-.012-.372-.012-.788-.012-1.19zm.889-.215c.269.014.55-.015.538-.445-.023-.444-.35-.286-.561-.315-.21-.029-.41-.043-.41.358-.011.459.2.416.433.402z"/>
    </g>
</svg>
