<svg xmlns="http://www.w3.org/2000/svg" width="243" height="35" viewBox="0 0 243 35">
    <g fill="none" fill-rule="nonzero">
        <path fill="#000" d="M229.463 0h-47.38c-.429 0-.643.216-.643.65v20.69c0 7.71 6.073 13.66 13.537 13.66h47.38c.429 0 .643-.216.643-.65V13.66C243 5.95 236.927 0 229.463 0"/>
        <path fill="#FFF" d="M184.68 21.203c0-5.535 4.34-9.808 9.693-9.808 5.38 0 9.747 4.273 9.747 9.808 0 5.455-4.367 9.727-9.747 9.727-5.352 0-9.693-4.218-9.693-9.727m15.579 0c0-3.735-2.823-6.073-5.912-6.019-3.09.027-5.806 2.311-5.806 6.02 0 3.68 2.743 5.964 5.806 5.991 3.089 0 5.912-2.31 5.912-5.992M209.398 17.128v.93c1.048-1.38 2.743-1.779 4.41-1.779 4.276.027 5.729 2.973 5.702 6.768v7.246c0 .425-.216.637-.646.637h-2.366c-.43 0-.646-.212-.646-.637v-7.22c0-2.229-.941-3.53-2.904-3.556-1.883-.026-3.443 1.433-3.443 3.557v7.22c0 .424-.215.636-.645.636h-2.475c-.43 0-.645-.212-.645-.637V17.128c0-.424.215-.637.645-.637h2.34c.457 0 .673.213.673.637M233.243 28.475c-1.27 1.515-3.238 2.455-5.439 2.455-3.651 0-7.484-2.507-7.484-7.338 0-4.884 3.651-7.313 7.355-7.313 3.884 0 7.225 2.664 7.225 7.26 0 .235-.026.47-.052.68-.026.391-.259.574-.647.574h-10.255c.284 1.906 2.279 3.003 3.884 3.003.958 0 2.098-.365 2.9-1.149.285-.261.544-.34.881-.104l1.528 1.044c.31.21.363.549.104.888m-5.672-9.14c-1.528 0-3.056.835-3.522 2.69h7.07c-.44-1.88-1.942-2.69-3.548-2.69"/>
        <path fill="#000" d="M151.433 28.475c-1.27 1.515-3.238 2.455-5.439 2.455-3.651 0-7.484-2.507-7.484-7.338 0-4.884 3.651-7.313 7.355-7.313 3.884 0 7.225 2.664 7.225 7.26 0 .235-.026.47-.052.68-.026.391-.259.574-.647.574h-10.255c.284 1.906 2.279 3.003 3.884 3.003.958 0 2.098-.365 2.9-1.149.285-.261.544-.34.881-.104l1.528 1.044c.31.21.363.549.104.888m-5.672-9.14c-1.528 0-3.056.835-3.522 2.69h7.07c-.414-1.88-1.942-2.69-3.548-2.69M159.988 17.128v.93c1.048-1.38 2.743-1.779 4.41-1.779 4.276.027 5.729 2.973 5.702 6.768v7.246c0 .425-.216.637-.646.637h-2.366c-.43 0-.646-.212-.646-.637v-7.22c0-2.229-.941-3.53-2.904-3.556-1.883-.026-3.443 1.433-3.443 3.557v7.22c0 .424-.215.636-.645.636h-2.475c-.43 0-.645-.212-.645-.637V17.128c0-.424.215-.637.645-.637h2.34c.457 0 .673.213.673.637M170.91 25.43V13.962c0-.387.228-.62.626-.672l2.477-.258c.456-.052.712.155.712.594v2.325h2.647c.456 0 .684.207.684.62v1.653c0 .414-.228.62-.684.62h-2.647v6.588c0 1.42.968 1.808 2.192 1.782.17 0 .313 0 .484-.026.455-.026.711.155.74.568l.057 1.628c.028.387-.228.62-.712.671-.54.052-1.053.078-1.537.052-3.132 0-5.039-1.266-5.039-4.675M115.02 30.293V17.13c0-.424.214-.637.642-.637h2.326c.427 0 .641.213.641.637v.93c1.016-1.328 2.62-1.805 4.225-1.779 1.818.027 3.208.664 4.037 2.123.962-1.433 2.887-2.123 4.759-2.123 3.261 0 5.266 2.31 5.24 6.476v7.537c0 .425-.214.637-.642.637h-2.353c-.427 0-.641-.212-.641-.637v-7.51c0-1.858-.695-3.08-2.273-3.08-1.657-.026-3.128 1.115-3.155 3.026v7.564c0 .425-.214.637-.641.637h-2.326c-.428 0-.642-.212-.642-.637V22.81c0-1.831-.802-3.105-2.38-3.105-1.55-.027-3.1 1.061-3.1 3.185v7.404c0 .425-.215.637-.642.637h-2.46c-.401 0-.615-.212-.615-.637M103.288 17.128v.93c1.048-1.38 2.743-1.779 4.41-1.779 4.276.027 5.729 2.973 5.702 6.768v7.246c0 .425-.216.637-.646.637h-2.366c-.43 0-.646-.212-.646-.637v-7.22c0-2.229-.941-3.53-2.904-3.556-1.883-.026-3.443 1.433-3.443 3.557v7.22c0 .424-.215.636-.645.636h-2.475c-.43 0-.645-.212-.645-.637V17.128c0-.424.215-.637.645-.637h2.313c.484 0 .7.213.7.637M93.15 13.512c0-1.411 1.23-2.117 2.46-2.117 1.2.027 2.4.706 2.4 2.117 0 1.33-1.17 2.007-2.34 2.035-1.23.054-2.52-.652-2.52-2.035m.42 17.581V17.636c0-.434.24-.652.72-.652h2.64c.48 0 .72.218.72.652v13.457c0 .434-.24.651-.72.651h-2.64c-.48 0-.72-.217-.72-.651M12.923 28.475c-1.27 1.515-3.238 2.455-5.439 2.455C3.833 30.93 0 28.423 0 23.592c0-4.884 3.651-7.313 7.355-7.313 3.884 0 7.225 2.664 7.225 7.26 0 .235-.026.47-.052.68-.026.391-.259.574-.647.574H3.626c.284 1.906 2.279 3.003 3.884 3.003.958 0 2.098-.365 2.9-1.149.285-.261.544-.34.881-.104l1.528 1.044c.31.21.363.549.104.888m-5.672-9.14c-1.528 0-3.056.835-3.522 2.69h7.07c-.414-1.88-1.942-2.69-3.548-2.69M20.668 17.128v.93c1.048-1.38 2.743-1.779 4.41-1.779 4.276.027 5.729 2.973 5.702 6.768v7.246c0 .425-.216.637-.646.637h-2.366c-.43 0-.646-.212-.646-.637v-7.22c0-2.229-.941-3.53-2.904-3.556-1.883-.026-3.443 1.433-3.443 3.557v7.22c0 .424-.215.636-.645.636h-2.475c-.43 0-.645-.212-.645-.637V17.128c0-.424.215-.637.645-.637h2.313c.484 0 .7.213.7.637M32.4 25.43V13.962c0-.387.229-.62.629-.672l2.458-.258c.457-.052.714.155.714.594v2.325h2.658c.457 0 .686.207.686.62v1.653c0 .414-.229.62-.686.62h-2.658v6.588c0 1.42.972 1.808 2.2 1.782.172 0 .315 0 .487-.026.457-.026.714.155.743.568l.057 1.628c.028.387-.229.62-.715.671-.543.052-1.057.078-1.543.052-3.115 0-5.03-1.266-5.03-4.675M53.423 28.475c-1.27 1.515-3.238 2.455-5.439 2.455-3.651 0-7.484-2.507-7.484-7.338 0-4.884 3.651-7.313 7.355-7.313 3.884 0 7.225 2.664 7.225 7.26 0 .235-.026.47-.052.68-.026.391-.259.574-.647.574H44.1c.285 1.906 2.279 3.003 3.884 3.003.958 0 2.098-.365 2.9-1.149.286-.261.545-.34.881-.104l1.528 1.044c.337.21.389.549.13.888m-5.672-9.14c-1.528 0-3.056.835-3.522 2.69h7.07c-.44-1.88-1.942-2.69-3.548-2.69M56.7 30.297V17.203c0-.422.2-.634.602-.634h1.93c.377 0 .578.212.603.608l.05.686c.928-1.109 2.056-1.584 3.36-1.584.326 0 .652.026 1.003.106.376.052.552.29.552.686l-.025 1.954c0 .448-.226.633-.652.554-.226-.027-.426-.053-.652-.053-1.78.026-3.436 1.267-3.436 3.511v7.26c0 .422-.2.633-.602.633h-2.131c-.401 0-.602-.211-.602-.633M67.23 25.43V13.962c0-.387.229-.62.629-.672l2.458-.258c.457-.052.714.155.714.594v2.325h2.658c.457 0 .686.207.686.62v1.653c0 .414-.229.62-.686.62h-2.658v6.588c0 1.42.972 1.808 2.2 1.782.172 0 .315 0 .487-.026.457-.026.714.155.743.568l.057 1.628c.028.387-.229.62-.715.671-.543.052-1.057.078-1.543.052-3.115 0-5.03-1.266-5.03-4.675M75.33 23.461c.027-3.865 2.56-7.182 7.385-7.182 1.59 0 3.342.47 4.42 1.854v-.992c0-.418.216-.627.647-.627h2.291c.431 0 .647.209.647.627v12.954c0 .417-.216.626-.647.626h-2.29c-.432 0-.648-.209-.648-.626v-.993c-1.024 1.358-2.857 1.802-4.42 1.828-4.851 0-7.412-3.578-7.385-7.469m11.805.104c0-2.507-2.021-4.1-4.15-4.1-2.588.026-4.016 1.88-4.016 4.048-.027 2.116 1.428 4.179 4.097 4.153 2.102-.053 4.07-1.646 4.07-4.1"/>
    </g>
</svg>
