<svg xmlns="http://www.w3.org/2000/svg" width="93" height="92" viewBox="0 0 93 92">
    <g fill="#000" fill-rule="nonzero">
        <path d="M55.523 73.89c.097.11.231.133.353.194a9.693 9.693 0 0 1 2.896 2.089c1.448 1.542 2.19 3.376 2.226 5.476.037 2.223-.584 4.25-2.007 6-1.497 1.845-3.456 2.902-5.817 3.254-.56.085-1.119.097-1.667.097H37.49c-.56 0-.487.024-.487-.498V59.488c0-.547-.06-.486.487-.486h12.63c1.752 0 3.42.34 4.953 1.202 2.664 1.506 4.052 3.789 4.149 6.85a8.782 8.782 0 0 1-.207 2.258 6.19 6.19 0 0 1-1.764 3.108c-.45.438-.937.826-1.436 1.215-.11.073-.243.121-.292.255zM43.67 81.552v4.457c-.012.146.073.182.195.182h5.707c.304 0 .608-.012.912-.073 3.407-.595 5.014-4.602 2.908-7.359-.936-1.226-2.202-1.846-3.76-1.846-1.861 0-3.723.013-5.585.013h-.194c-.134-.013-.195.06-.183.194v4.432zm0-13.552v3.825c0 .328 0 .328.317.34 1.57 0 3.139.013 4.709 0 2.786-.036 4.745-2.793 3.881-5.44a4.135 4.135 0 0 0-3.918-2.866c-1.545-.024-3.09 0-4.624 0h-.194c-.122 0-.159.061-.159.17v.28c-.012 1.226-.012 2.465-.012 3.691zM40.197 45c-.165-.133-.189-.267-.236-.388-4.378-10.288-8.756-20.589-13.146-30.877C24.49 8.28 27.322 1.968 32.987.356c5.38-1.539 10.927 2.072 11.883 7.72.212 1.248.142 2.484-.047 3.72-.283 1.975-.555 3.962-.838 5.938l-.814 5.817c-.248 1.745-.484 3.49-.732 5.235-.271 1.939-.543 3.878-.814 5.829-.272 1.95-.543 3.902-.814 5.865-.19 1.49-.402 2.981-.614 4.52zM32.939 91a5961.95 5961.95 0 0 0-10.144-9.215c-3.361-3.055-6.722-6.11-10.108-9.178-.121.145-.073.29-.073.422v16.86c0 .531.037.47-.46.47H6.462c-.061 0-.134-.011-.195 0-.218.037-.279-.084-.267-.277.013-.109 0-.217 0-.314v-31.28-.458c.049-.025.061-.025.073-.025.012 0 .025-.012.037 0 .036.025.06.049.097.073.048.048.097.084.145.133 6.613 6.002 13.214 12.016 19.827 18.019.024.024.06.048.097.072.012.012.024.012.06.024.086-.12.05-.265.05-.41v-5.073-11.775c0-.52-.025-.47.473-.47H32.83c.109 0 .17.06.17.168V90.601c0 .097.011.218-.061.399zM53 50c0-.183.084-.306.144-.428 3.6-8.338 7.21-16.664 10.81-25.002.807-1.87 1.601-3.753 2.432-5.612 1.312-2.958 3.515-4.866 6.608-5.66 5.309-1.37 10.726 2.127 11.81 7.568.782 3.924-.807 7.873-4.058 10.123C71.634 37.26 62.522 43.52 53.41 49.792c-.144.074-.24.171-.409.208zM51.802 45l-.212-1.49c-.306-2.18-.611-4.348-.906-6.529l-.882-6.407c-.318-2.326-.647-4.64-.977-6.965a720.943 720.943 0 0 1-1-7.28c-.083-.641-.094-1.295.059-1.937.164-.715.53-1.296 1.13-1.696.388-.255.788-.497 1.2-.703.13-.06.259-.12.376-.206.177-.12.436-.206.389-.484-.048-.242-.295-.254-.495-.315a4.61 4.61 0 0 0-1.153-.121h-1.894c-.389 0-.389 0-.412-.388-.33-4.736 2.67-9.048 7.248-10.199 5.202-1.32 10.497 2.157 11.544 7.583.389 2.06.153 4.033-.659 5.947l-9.814 23.075c-1.094 2.58-2.2 5.172-3.295 7.752-.047.12-.106.23-.164.35-.036.013-.06.013-.083.013zM40 50c-.157-.037-.241-.122-.338-.184-9.144-6.288-18.3-12.551-27.42-18.876-3.125-2.165-4.512-5.285-4.199-9.102.362-4.44 3.8-8.05 8.167-8.722 4.355-.673 8.542 1.639 10.339 5.725 1.665 3.792 3.293 7.597 4.934 11.39 2.787 6.447 5.573 12.881 8.36 19.329.06.122.145.244.157.44zM51 52c.086-.165.208-.212.306-.271 8.774-5.697 17.536-11.405 26.311-17.09 5.768-3.74 13.553-.767 15.13 5.744 1.234 5.071-2.164 10.26-7.43 11.37-.734.153-1.48.235-2.225.235H51.367C51.269 52 51.159 52 51 52zM42 51.952c-.135.07-.257.035-.367.035-10.57 0-21.153.036-31.723-.012-4.213-.023-7.3-1.982-9.051-5.677-2.56-5.406.857-11.815 6.895-13.066 2.793-.578 5.377-.07 7.741 1.464 6.982 4.532 13.963 9.065 20.932 13.585 1.74 1.133 3.49 2.266 5.23 3.4.11.082.245.141.343.27zM86.954 65.712c-3.001-1.823-6.148-2.282-9.475-1.232-2.399.761-4.303 2.222-5.714 4.287-2.845 4.155-2.495 9.71.82 13.514 3.351 3.84 9.342 5.132 14.333 2.04.12.085.072.218.072.327v5.712c0 .35 0 .35-.325.483-2.375.893-4.81 1.34-7.366 1.087-4.966-.483-9.125-2.536-12.392-6.328-2.097-2.452-3.387-5.29-3.773-8.49-.603-5.036.832-9.468 4.231-13.223 2.773-3.056 6.245-4.88 10.307-5.604 1.724-.302 3.46-.386 5.196-.145 1.314.181 2.592.483 3.809.99.169.073.313.133.313.375-.012 2.017-.012 4.045-.012 6.062.012.024 0 .048-.024.145z"/>
    </g>
</svg>
