<svg xmlns="http://www.w3.org/2000/svg" width="173" height="30" viewBox="0 0 173 30">
    <g fill="#000" fill-rule="nonzero">
        <path d="M126.79 30c-.256-.085-.513-.085-.769-.114-2.334-.255-4.497-.965-6.404-2.357-2.22-1.619-3.615-3.834-4.242-6.476-.398-1.619-.455-3.266-.284-4.913.313-3.04 1.252-5.851 2.96-8.407 2.448-3.664 5.778-6.107 10.077-7.215 1.935-.51 3.9-.625 5.892-.426 1.822.2 3.558.682 5.152 1.62 2.647 1.533 4.355 3.834 5.238 6.73.484 1.62.654 3.267.569 4.971-.085 1.505-.37 3.01-.712 4.46-.057.226-.057.226-.284.226H124.37c-.455 0-.398-.028-.37.398.114 1.619 1.167 2.897 2.761 3.352 1.48.397 2.932.34 4.356-.228a4.584 4.584 0 0 0 1.594-1.05.517.517 0 0 1 .398-.171h9.877c.057 0 .143-.028.2.028a.258.258 0 0 1-.086.2c-2.135 3.976-5.266 6.844-9.564 8.378-1.28.454-2.59.738-3.928.88-.2.029-.399 0-.598.086-.712.028-1.48.028-2.22.028zm-1.31-18.32c.114.029.2.029.314.029h10.019c.2 0 .228 0 .2-.227-.057-2.045-1.253-3.267-2.762-3.693-.91-.284-1.85-.284-2.79-.113-2.276.426-3.927 1.704-4.952 3.806 0 .056-.057.113-.029.198zM.029 10.209c.057-.086.085-.173.114-.259a359 359 0 0 1 .915-5.435c.2-1.092.372-2.185.572-3.249.057-.288-.028-.259.372-.259h25.712c.086 0 .172-.029.286.029l-.172 1.035c-.343 1.956-.686 3.94-1.03 5.895-.114.69-.257 1.41-.371 2.1-.057.287-.057.258-.315.258H18.82c-.143 0-.314-.058-.429.029-.086.086-.057.259-.086.402-.429 2.617-.886 5.234-1.344 7.85-.4 2.272-.8 4.515-1.201 6.787-.257 1.438-.486 2.847-.744 4.284-.057.374 0 .317-.371.317H5.263c-.086 0-.172.029-.315-.029l.172-1.035c.371-2.186.772-4.371 1.144-6.556.343-1.956.686-3.882 1.03-5.838.314-1.84.628-3.68.972-5.492.028-.173.057-.316.085-.489.029-.23.029-.23-.2-.23H0c.029-.058.029-.086.029-.115zM100.422 28.944c.086-.478.173-.956.26-1.462.319-1.799.666-3.626.985-5.425.348-1.911.695-3.795 1.043-5.706.231-1.265.463-2.502.666-3.767a4.37 4.37 0 0 0-.174-2.108c-.434-1.208-1.332-1.883-2.607-1.967-1.998-.14-3.533.646-4.663 2.22-.55.76-.811 1.603-.956 2.502-.405 2.249-.81 4.47-1.216 6.718-.406 2.22-.811 4.413-1.188 6.634-.145.73-.26 1.433-.405 2.164-.03.197-.03.225-.261.225H82c.029-.337.087-.647.145-.928.376-2.024.724-4.047 1.1-6.071.377-1.996.725-3.992 1.101-5.987.319-1.8.666-3.598.985-5.397.319-1.8.637-3.598.985-5.369.26-1.405.521-2.783.753-4.188V.947c.058-.253.058-.253.29-.253h8.95c.086 0 .144-.028.231.057a597.79 597.79 0 0 0-1.042 3.598c.057 0 .086-.028.115-.057 1.275-1.517 2.897-2.586 4.722-3.345 1.1-.45 2.259-.815 3.446-.899 2.144-.169 4.23.084 6.14 1.124 1.884 1.04 3.042 2.614 3.65 4.61.435 1.406.493 2.84.377 4.273-.087 1.265-.377 2.501-.608 3.766-.319 1.8-.666 3.598-.985 5.397-.348 1.912-.695 3.795-1.043 5.706-.232 1.293-.463 2.558-.695 3.851-.029.225-.029.225-.26.225h-9.675c-.087-.028-.145 0-.26-.056zM34.94 1h4.719c.284 0 .284 0 .228.282l-1.28 7.266c-.398 2.225-.796 4.422-1.194 6.647-.142.816-.341 1.633-.37 2.45-.028.563.029 1.127.256 1.662.398.957 1.138 1.52 2.161 1.69 2.303.394 4.492-.705 5.43-3.042.228-.535.342-1.127.427-1.69.37-2.14.768-4.281 1.137-6.421.37-2 .711-4.028 1.08-6.028.143-.845.314-1.718.456-2.563.057-.253.057-.253.312-.253h9.468c.256 0 .256 0 .2.225l-1.707 9.632a361.784 361.784 0 0 1-1.052 5.887c-.454 2.281-1.222 4.45-2.473 6.421-2.047 3.21-4.947 5.267-8.643 6.224-2.076.535-4.208.704-6.37.564-1.364-.085-2.7-.31-4.008-.733-1.507-.478-2.843-1.239-3.98-2.337-1.223-1.211-1.991-2.676-2.389-4.338-.341-1.38-.398-2.788-.313-4.224.086-1.24.313-2.479.54-3.69.313-1.718.598-3.436.91-5.154.313-1.802.626-3.605.967-5.379l.512-2.873C29.992 1 30.02 1 30.248 1h4.691zM160 1.065c-.142.777-.256 1.525-.398 2.302-.314 1.843-.655 3.685-.968 5.527-.313 1.842-.655 3.684-.968 5.527-.313 1.842-.655 3.684-.968 5.526-.313 1.727-.597 3.454-.91 5.181-.257 1.526-.541 3.08-.797 4.606-.057.259-.057.259-.314.259h-9.42c-.086 0-.172.029-.257-.029.028-.317.085-.604.142-.921.313-1.842.655-3.684.968-5.527.342-1.957.683-3.914 1.025-5.9.313-1.843.626-3.685.967-5.498l1.025-5.872c.285-1.64.57-3.253.854-4.894.085-.431.028-.345.399-.345h9.278c.114.029.228 0 .342.058zM56 29.964c.17-.979.34-1.957.511-2.907.313-1.842.654-3.685.966-5.527.341-1.957.682-3.914 1.023-5.9.34-1.958.682-3.886 1.023-5.844.34-1.928.682-3.886 1.022-5.814.142-.892.313-1.785.483-2.677.057-.288.057-.288.313-.288h9.375c.085 0 .17-.029.284.029-.085.432-.142.864-.227 1.295-.37 2.044-.71 4.116-1.08 6.16-.37 2.044-.71 4.116-1.08 6.16-.34 1.957-.681 3.886-1.022 5.843-.341 1.929-.682 3.886-1.023 5.814-.199 1.123-.398 2.217-.568 3.34-.057.345-.057.345-.398.345h-9.261c-.114 0-.227.029-.341-.029zM71 6.443C71 2.895 73.952-.028 77.5 0c3.718.029 6.528 3.037 6.5 6.528C83.943 10.105 81.076 13 77.5 13S71 10.048 71 6.443zM172.993 6.49c.143 2.812-1.936 5.595-4.955 6.333-3.417.823-6.949-1.306-7.832-4.714-.94-3.663 1.424-7.355 5.155-8.008 3.588-.625 6.863 1.732 7.547 5.026.085.454.085.909.085 1.363z"/>
    </g>
</svg>
