<svg xmlns="http://www.w3.org/2000/svg" width="206" height="51" viewBox="0 0 206 51">
    <g fill="#000" fill-rule="nonzero">
        <path d="M6.76 30c0 .936-.024 1.601 0 2.241.1 2.168 1.771 3.276 3.867 2.734 1.97-.517 3.467-1.7 4.913-3.03.5-.467 1.048-.91 1.647-1.428.224.64.15 1.232.449 1.724 1.097 1.897 2.544 2.143 4.689 1.207 1.272-.566 2.394-1.453 3.342-2.512.45.148.424.517.524.788.823 2.143 2.569 2.931 4.764 2.168 1.92-.69 3.392-2.045 4.864-3.547.449.813.723 1.625 1.347 2.241.648.64 1.297.887 2.195.345 1.147-.665 2.37-1.158 3.566-1.773.674-.345 1.073-.345 1.073.566-.025 5.788-.025 11.576 0 17.365 0 .985-.574.886-1.222.886H24.196c-7.558 0-15.14-.024-22.698.025C.375 50-.024 49.704 0 48.547c.05-5.099.05-10.173 0-15.271 0-.838.075-1.256 1.147-1.06 1.223.247 2.37-.295 3.418-.91.698-.345 1.347-.764 2.195-1.306zM22.633 22.052c1.71-4.027 5.007-6.613 7.51-9.82 1.091-1.392 1.81-2.959 1.86-4.773.024-.448.099-.895.148-1.343.67 0 .794.522 1.041.87C34.804 9.2 35.4 11.76 35.92 14.37c.074.423-.05 1.044.52 1.144.546.074.67-.522.893-.92.645-1.144 1.586-1.989 2.504-2.909 1.289-1.268 2.528-2.586 3.792-3.878.471.373.347.72.347 1.019 0 5.544-.025 11.113.025 16.657C44 26.577 43.727 27 42.538 27c-13.708-.05-27.416-.025-41.124 0-1.09 0-1.438-.348-1.413-1.442.05-2.735.025-5.47 0-8.204 0-2.288.942-4.078 2.876-5.32 1.04-.672 2.107-1.294 3.173-1.94C7.81 9 9.619 7.93 10.263 5.395c.794 1.74.794 3.207.447 4.65-.372 1.64-.967 3.256-1.413 4.872-.174.647-.496 1.318-.124 2.163.446-.348.62-.795.768-1.218.893-2.56 2.653-4.351 5.007-5.594 1.389-.721 2.826-1.343 4.264-2.014 1.314-.621 2.528-1.417 3.445-2.585 1.116-1.418 1.661-2.96.942-4.75-.099-.248-.247-.546.075-.919 2.454 1.591 3.619 3.953 4.04 6.738.347 2.337-.347 4.5-1.413 6.563-1.214 2.312-2.702 4.475-3.619 6.912-.198.547-.545 1.044-.05 1.84zM63.366 12.345c-1.516 0-3.007.025-4.522 0-.758-.026-1.125.151-1.1 1.037.048 1.896 0 3.793.024 5.69.024 1.594.318 1.872 1.833 2.125.294.05.783-.101.783.354.024.582-.514.43-.831.43-1.907.025-3.838.025-5.745 0-.318 0-.734.076-.734-.43 0-.43.392-.329.66-.38 1.638-.353 1.76-.53 1.785-2.276V6.502c0-1.973-.122-2.125-1.882-2.656-.27-.076-.66-.05-.636-.43.025-.506.44-.404.758-.404h6.111c.27 0 .66-.051.71.328.048.531-.392.405-.685.456-2.054.328-2.103.379-2.103 2.554 0 1.34.025 2.706 0 4.047-.024.708.22.961.93.961 3.177-.025 6.355-.025 9.533 0 .71 0 .905-.303.905-.986-.025-1.518-.025-3.035-.025-4.553.025-1.138-.366-1.872-1.564-1.948-.318-.025-.856-.025-.782-.556.073-.43.537-.303.83-.278 1.907.076 3.839.152 5.745 0 .294-.025.636-.05.636.354 0 .43-.367.329-.636.38-1.784.278-1.93.455-1.93 2.352v12.52c0 1.846.17 2.048 1.882 2.503.268.076.635.051.61.456-.048.379-.415.354-.684.354-2.029 0-4.082 0-6.111-.026-.294 0-.636 0-.611-.404 0-.329.317-.304.537-.354 2.078-.506 2.103-.531 2.103-2.757 0-1.644-.025-3.288.024-4.932.025-.86-.22-1.214-1.1-1.164-1.613.076-3.178.026-4.718.026zM59.193 32.101c1.236 0 2.472-.126 3.683.026 2.967.38 4.401 2.328 4.08 5.366-.396 3.594-3.98 6.125-7.244 5.087-.37-.126-.989-.126-.865-.683.148-.684.667-.203 1.013-.127 1.162.33 2.102 0 2.942-.835 1.063-1.088 1.632-2.43 1.756-3.949.197-2.556-1.434-4.176-3.931-3.948-.594.05-.89.354-1.039.886-1.31 4.96-2.62 9.922-3.906 14.883-.272 1.013.272 1.266 1.137 1.29.347 0 .89-.15.89.38 0 .583-.543.507-.94.507h-4.944c-.321 0-.741.126-.815-.33-.075-.43.296-.556.667-.556 1.236.025 1.706-.76 1.978-1.848 1.112-4.404 2.274-8.808 3.412-13.187.42-1.67.296-1.797-1.385-2.025-.247-.026-.544 0-.519-.355.025-.38.321-.48.618-.48 1.162-.076 2.3-.152 3.461-.203-.05.05-.05.076-.05.101zM81.245 43.96c1.057-1.264 1.92-2.43 3.001-3.421.744-.694 1.537-1.314 2.52-1.612 1.705-.52 3.074.447 3.218 2.257.096 1.116-.24 2.132-.769 3.074-1.536 2.778-3.769 4.81-6.553 6.15-.865.421-1.8.67-2.785.57-1.585-.149-2.185-1.041-1.729-2.628 1.369-4.786 2.857-9.547 3.962-14.407.48-2.058.456-2.058-1.297-3.174 1.32-.57 2.617-.719 3.89-.768.623-.025.263.719.143 1.09-1.128 3.794-2.256 7.563-3.385 11.357-.096.422-.336.843-.216 1.513zm6.698-2.479c-.024-1.314-1.008-1.81-2.208-.967-2.593 1.835-4.514 4.265-5.69 7.29-.192.521-.384 1.116.144 1.587.504.447 1.08.447 1.704.248 2.113-.694 5.882-5.629 6.026-7.91.024-.074.024-.149.024-.248zM115.29 44.386c1.219-1.363 2.223-2.8 3.49-3.989.718-.669 1.483-1.263 2.44-1.486 1.434-.372 2.486.347 2.725 1.784.455 2.849-2.008 8.349-4.423 9.835-.526.322-1.076.545-1.698.446-.574-.099-.98-.42-.885-1.09.096-.669.55-1.14 1.172-.867 1.339.62 1.841-.273 2.295-1.214.837-1.833 1.435-3.766 1.507-5.822.072-1.462-.741-1.933-2.009-1.288-.502.247-.908.668-1.291 1.09-2.057 2.378-3.778 5.004-4.902 7.977-.072.198-.144.397-.215.57-.192.47-.503.768-1.029.57-.454-.174-.526-.595-.43-1.016.191-.768.407-1.511.622-2.254 1.387-4.609 2.821-9.192 3.897-13.9.24-1.015.574-2.105-.956-2.353-.191-.025-.287-.173-.263-.347.024-.223.191-.347.406-.371.861-.174 1.722-.347 2.56-.57.956-.273 1.147.074.884.966-.933 3.146-1.841 6.318-2.75 9.464-.359 1.288-.765 2.577-1.148 3.865zM97.948 28.814c-.595.026-1.511.1-2.403.151-.248 0-.545-.025-.545-.351 0-.251.223-.352.421-.377 1.685-.025 1.71-1.204 1.71-2.434-.025-3.94-.025-7.855 0-11.796 0-.903-.1-1.656-1.09-2.007-.62-.226-.496-.578.024-.828l1.56-.753c.72-.352 1.487-.929 1.388.627-.05.577.347.552.743.326.545-.3 1.09-.577 1.66-.853 1.783-.903 3.418-.627 4.855.828 2.526 2.56 2.254 6.852-.62 9.085-1.66 1.305-3.517 2.033-5.647 1.707-.818-.126-1.04.15-.991.903.05 1.08.05 2.184.05 3.263 0 1.204.47 1.907 1.733 1.932.298 0 .793-.025.744.427-.05.452-.496.326-.793.301-.842-.075-1.66-.1-2.8-.15zm1.065-12.749v2.385c.025 1.857.793 2.635 2.65 2.66 3.245.05 5.128-3.238 3.865-6.701-.843-2.284-2.824-3.288-5.153-2.585-.941.276-1.461.803-1.362 1.882.05.753 0 1.556 0 2.36zM148.68 7.996c-.606-.073-.656-.393-.783-.638-1.82-3.292-5.408-4.495-8.997-2.997-3.64 1.523-5.762 5.895-4.903 10.095.809 3.906 4.297 6.804 8.34 6.706 2.578-.074 4.954-.762 5.813-3.586.076-.27.202-.59.581-.516.43.098.228.442.177.712 0 .05-.025.074-.025.123-.43 3.021-.505 3.12-3.589 3.758-3.664.761-7.127.32-10.235-1.818-5.889-4.052-5.257-12.232 1.162-15.474 3.665-1.842 7.355-1.67 11.12-.344.455.172.885.369.96.884.178 1.007.279 2.015.38 3.095zM73.453 43.855c-1.397 1.485-2.795 3.019-4.24 4.48-.795.803-1.686 1.51-2.554 2.24-.337.292-.722.584-1.204.292s-.506-.755-.41-1.29c.265-1.413.916-2.679 1.397-4.018.41-1.096.868-2.191 1.277-3.287.12-.292.313-.657 0-.9-.337-.269-.554.145-.843.243-.337.146-.602.803-.988.316-.313-.414.265-.682.506-.95.65-.706 1.301-1.436 2.217-1.826.433-.17.867-.268 1.252.073.362.317.265.73.097 1.12-.771 2.046-1.566 4.091-2.337 6.136-.145.39-.313.755-.386 1.145-.096.56.217.803.7.487.385-.22.722-.536 1.01-.852 2.145-2.314 4.217-4.7 5.903-7.378.241-.365.41-.901.916-.852.963.048.77.73.554 1.339-.747 2.094-1.542 4.188-2.289 6.282-.145.414-.265.852-.361 1.29-.073.292-.073.585.216.755.241.146.458-.024.65-.17.7-.439 1.181-1.096 1.663-1.753.169-.22.29-.585.627-.414.36.194.072.51-.073.73-.915 1.34-1.927 2.605-3.324 3.482-.506.316-1.108.682-1.663.17-.481-.438-.313-1.07-.12-1.607a321.253 321.253 0 0 1 1.83-5.137c.073-.049.025-.098-.023-.146zM191.815 20.952c2.18-.237 1.753-1.783 1.753-3.067 0-1.474.05-2.924-.05-4.399-.1-1.688-1.302-2.52-3.056-2.235-2.079.333-2.855 1.19-2.83 3.163 0 1.189.025 2.377 0 3.566-.05 1.356-.125 2.687 1.829 3.02H184c2.104-.19 1.854-1.64 1.829-2.972-.026-1.474 0-2.925 0-4.399 0-.951.25-2.045-1.679-1.95.1-.119.176-.214.276-.333.902-.38 1.778-.784 2.68-1.093.802-.262.45.428.526.713.075.262-.1.618.15.785.376.214.601-.167.852-.333.827-.547 1.628-1.165 2.63-1.332 2.555-.38 4.033.476 4.083 2.996.025 1.831.075 3.638-.025 5.469-.075 1.26.225 2.116 1.678 2.425-1.728-.024-3.457-.024-5.185-.024zM161.977 15.852c0 3.61-2.629 6.148-6.348 6.148-3.273-.025-5.604-2.44-5.629-5.8-.025-3.51 2.777-6.297 6.373-6.197 3.322.074 5.901 2.986 5.604 5.849zm-9.82-.821c-.099 1.941.224 3.534 1.315 4.903 1.735 2.215 4.81 1.867 5.926-.697 1.041-2.414.744-4.804-.645-6.994-.793-1.27-2.058-1.743-3.546-1.568-1.438.174-2.256 1.095-2.702 2.414-.248.697-.397 1.419-.348 1.942zM92.225 51c-1.018 0-1.42-.72-1.136-1.862.734-2.83 1.515-5.635 2.272-8.465.64-2.383 1.255-4.766 1.894-7.149.237-.893.331-1.737-.758-2.11-.213-.074-.378-.173-.355-.422.024-.223.213-.322.426-.372.97-.199 1.941-.397 2.888-.596.734-.149.545.422.45.77-.308 1.241-.663 2.457-1.018 3.698-1.16 4.17-2.343 8.316-3.48 12.487-.165.645-.662 1.464.048 1.911.71.447 1.136-.472 1.68-.844.403-.273.71-1.266 1.231-.72.474.472-.355.943-.686 1.34-.994 1.093-2.06 2.036-3.456 2.334zM85 19.685c-.197 1.18-.54 2.041-1.695 2.238-1.475.27-1.99-.763-2.31-1.992-.762.565-1.4 1.131-2.113 1.574-.835.516-1.794.737-2.653.123-.91-.64-1.229-1.623-1.229-2.68 0-.763.614-1.157 1.204-1.427 1.253-.59 2.53-1.156 3.833-1.623.86-.295 1.13-.763 1.08-1.623-.073-1.009-.024-2.017-1.13-2.484-1.203-.517-2.53.074-3.07 1.279-.222.491-.738.614-1.155.836-.197.098-.32-.05-.393-.197-.172-.492.024-.91.319-1.254 1.106-1.131 2.457-1.968 3.931-2.361 1.72-.467 3.12.86 3.194 2.803.074 1.919.025 3.837.025 5.78 0 .614-.05 1.278.59 1.647.614.32.86-.442 1.572-.64zm-3.907-2.14c-.393-.246.64-1.401-.59-1.155-1.007.22-1.99.713-2.825 1.377-.884.688-.59 1.5-.221 2.311.295.615.81.763 1.425.541 1.278-.393 2.211-1.623 2.211-3.074zM125 46.71c.128-2.221 1.098-4.418 3.063-6.175 1.277-1.123 2.782-1.709 4.543-1.49.996.123 1.94.416 2.272 1.465.357 1.099-.102 2.002-.945 2.71-.995.83-2.194 1.22-3.445 1.489-.46.097-.919.17-1.378.244-1.787.268-2.17.708-1.914 2.343.23 1.538 1.276 2.368 2.807 2.197.919-.098 1.685-.513 2.348-1.098.179-.171.408-.342.664-.122.255.244.05.439-.077.634-1.097 1.758-4.211 2.637-6.125 1.733-1.225-.537-1.838-1.806-1.812-3.93zm6.688-6.956c-.077 0-.18 0-.256.024-1.327.146-3.802 3.076-3.675 4.32.026.269.179.318.408.342 1.277.196 4.11-1.171 4.697-2.294.535-1.05-.077-2.368-1.174-2.392zM170 2.366c1.152-.813 2.304-1.676 3.134-1.257.76.37.253 1.874.253 2.884 0 5.053.023 10.081 0 15.134 0 1.232.853 1.38 1.613 1.873h-4.816c1.521-.32 1.544-1.528 1.521-2.81-.023-4.264-.023-8.528 0-12.792.023-1.355.092-2.637-1.705-3.032zM116.034 14.617c-.987 0-2 .025-2.988 0-.701-.025-1.065.222-1.04.912.053 1.8.728 3.304 2.365 4.29 1.637.986 3.196.74 4.626-.469.207-.172.441-.517.753-.221.312.295-.078.517-.234.715-2.286 3.081-6.911 2.81-8.782-.494-2.13-3.771.65-9.121 4.859-9.343 2.338-.123 4.21 1.38 4.391 3.476.078.814-.104 1.233-1.091 1.159-.962-.074-1.897-.025-2.859-.025zm-1.35-.542v-.05h1.298c.676 0 1.456.074 1.69-.764.233-.838-.13-1.528-.832-2.046-1.3-.912-2.884-.468-3.898 1.11-.311.492-.78 1.06-.467 1.577.26.444.935.123 1.455.173.26.024.52 0 .753 0zM163 21c1.974-.638 2.105-.785 2.105-2.846 0-4.195 0-8.414.027-12.61 0-1.348.026-2.673-1.974-3.115 1.079-.858 2.237-1.128 3.342-1.398.763-.196.5.589.5.957 0 3.508-.026 7.016-.026 10.524v5.274c0 2.16 0 2.16 2.026 3.214h-6z"/>
        <path d="M125.021 12.719c.596-.66 1.092-1.293 1.638-1.85.645-.66 1.439-1.015 2.357-.812.72.152 1.067.66.967 1.394-.124.812-.72 1.065-1.389.837-.893-.304-1.687-.583-2.506.228-.893.862-1.439 1.775-1.315 3.093.1 1.166.05 2.358.025 3.55-.025 1.165.273 2.002 1.563 2.129.248.025.546.076.521.405-.025.33-.347.304-.595.304h-4.714c-.224 0-.546.051-.571-.304-.025-.253.198-.355.422-.38 1.265-.076 1.39-.938 1.39-1.952 0-1.825.024-3.625.049-5.45 0-.761-.15-1.395-.968-1.7-.744-.278-.695-.658-.025-.963.819-.38 1.762-1.191 2.457-1.014 1.042.203.05 1.598.694 2.485zM205.442 12.997c-.685-.273-.685-.843-.974-1.24-.764-1.09-2.134-1.437-3.345-.793-1.212.645-1.344 2.082-.211 2.875.87.62 1.87 1.066 2.818 1.611 1.897 1.091 2.555 2.28 2.16 3.842-.395 1.537-1.923 2.627-3.977 2.702a8.841 8.841 0 0 1-1.818-.124c-1.843-.347-2.238-.893-2.054-2.677.026-.198-.053-.446.237-.496.29-.05.369.174.448.347.369.769.843 1.438 1.607 1.909 1.554.966 3.345.272 3.74-1.438.21-.942-.422-1.512-1.054-1.983-.737-.57-1.633-.966-2.45-1.437-1.343-.769-2.396-1.735-2.16-3.37.211-1.389 1.45-2.33 3.399-2.653 1.158-.198 2.317.025 3.318.52 1.238.62.395 1.562.316 2.405zM91.91 21.667c-.125.38-.447.303-.72.303a32.875 32.875 0 0 0-4.465 0c-.273.026-.645.127-.72-.278-.05-.304.273-.405.521-.405 1.042-.05 1.29-.784 1.315-1.644.05-1.949.05-3.871.074-5.82 0-.733-.248-1.29-.967-1.593-.844-.355-.67-.709.025-1.013.818-.379 1.786-1.163 2.456-.986.843.227.05 1.568.545 2.429.62-.279.893-.936 1.315-1.392.67-.734 1.414-1.316 2.456-1.265.546.025.968.228 1.166.784.149.43.124.835-.174 1.19-.372.455-.843.43-1.364.278-1.96-.531-3.548.708-3.597 2.808-.025 1.341.025 2.707-.025 4.048-.05 1.24.372 2.05 1.662 2.176.273.025.471.127.496.38zM140.232 43.638c.921-1.268 1.667-2.341 2.464-3.39.398-.536.895-1 1.567-1.17.597-.147 1.194-.025 1.543.512.273.439.273.95-.1 1.366-.448.487-1.02.634-1.542.243-.846-.61-1.22.025-1.568.537-1.343 1.975-2.388 4.073-3.21 6.316-.323.83-.671 1.659-1.07 2.464-.223.487-.646.585-1.144.39-.522-.22-.398-.634-.274-1.025.598-1.829 1.195-3.633 1.767-5.462.15-.513.299-1.025.348-1.537.075-.634.125-1.366-.647-1.683-.721-.292-1.02.342-1.393.732-.199.22-.373.683-.746.463-.498-.292-.05-.658.149-.926.398-.61.821-1.244 1.294-1.78.448-.488 1.07-.854 1.766-.61.747.244 1.02.902 1.145 1.61.1.926-.274 1.78-.349 2.95zM147.199 51c-.93-.097-1.91-.122-2.162-1.265-.1-.438 0-.827.352-1.094.402-.292.779-.195 1.156.073.277.194.528.413.83.56.804.388 1.558.242 2.161-.414.553-.608.528-1.24.025-1.873-.704-.851-1.407-1.727-2.111-2.554-1.03-1.216-.83-2.894.528-4.256 1.181-1.168 3.393-1.557 4.499-.754.553.413.704.924.276 1.483-.502.657-1.005.39-1.432-.097-.704-.803-1.483-1.07-2.363-.316-.804.68-.804 1.41.05 2.456.679.827 1.408 1.606 2.086 2.433.956 1.143 1.006 1.97.202 3.21-.956 1.435-2.288 2.335-4.097 2.408zM106.429 51c-.912-.073-1.798 0-2.254-.898-.228-.46-.279-.946.127-1.359.455-.412.911-.267 1.367.049.228.17.456.364.71.485.759.364 1.493.243 2.101-.34.582-.558.658-1.237.203-1.868-.608-.825-1.292-1.602-1.95-2.378-1.216-1.408-1.216-2.67-.026-4.15 1.09-1.335 3.115-1.917 4.533-1.286.456.218.76.51.76 1.019 0 .388-.127.728-.506.922-.532.243-.836-.145-1.19-.46-1.014-.899-1.748-.923-2.457-.098-.507.582-.659 1.19-.101 1.844.785.898 1.57 1.796 2.304 2.718 1.089 1.36 1.114 2.233.101 3.616-.911 1.262-2.127 2.111-3.722 2.184zM99.301 51c-1.12-.025-1.567-.683-1.144-1.853.746-2.097 1.592-4.17 2.388-6.267l.373-1.024c.1-.317.224-.658-.1-.902-.323-.244-.596.073-.895.17-.423.171-.796.976-1.194.44-.373-.488.398-.854.771-1.196.548-.512 1.17-.877 1.866-1.194.572-.244 1.144-.269 1.617.17.497.415.398.927.199 1.463-.796 2.122-1.617 4.243-2.413 6.389-.15.39-.274.756-.398 1.146-.075.293-.05.56.224.756.298.22.547.073.796-.073.746-.44 1.244-1.17 1.866-1.78.174-.171.348-.39.621-.195.175.122.125.268.075.439-.423 1.292-3.358 3.535-4.652 3.51zM183 20.873c-2.08.216-3.973.096-6 .072 2.373-.144 2.187-1.559 2.16-2.95a79.818 79.818 0 0 1 0-3.573c.027-1.343.187-2.734-2.08-3.022 1.227-.792 2.347-1.007 3.413-1.343.8-.24.667.336.64.671-.026 1.343-.106 2.71-.106 4.054-.027 1.079 0 2.158 0 3.237 0 1.271-.294 2.662 1.973 2.854zM179.516 2c.95.111 1.536.639 1.48 1.611-.028.945-.642 1.389-1.535 1.389-1.006 0-1.536-.556-1.452-1.583.028-.89.558-1.361 1.507-1.417zM102.959 31c.666.041 1.041.412 1.041 1.03 0 .599-.375.97-.979.97-.645 0-1.041-.371-1.02-1.03 0-.578.354-.908.958-.97z"/>
    </g>
</svg>
