<svg xmlns="http://www.w3.org/2000/svg" width="216" height="48" viewBox="0 0 216 48">
    <g fill="#000" fill-rule="nonzero">
        <path d="M.039 12.49c1.276-1.287 2.398-2.77 3.752-3.98C5.377 7.103 7 5.815 8.896 4.917a8.479 8.479 0 0 1 1.973-.703c3.056-.78 5.067.586 5.493 3.748.077.78.116 1.522.193 2.303.116 1.17.62 1.444 1.663.898.929-.469 1.664-1.21 2.437-1.874.967-.82 1.896-1.679 2.863-2.498.89-.742 1.895-1.25 2.978-1.601 3.288-1.054 5.995.39 7.001 3.708.27.898.426 1.835.464 2.772.039 2.46.039 4.958.039 7.417 0 .117-.039.234-.116.625-.27-.86-.387-1.445-.619-2.03-1.122-2.85-3.559-4.1-6.498-3.28-1.47.391-2.708 1.21-3.868 2.187-1.509 1.249-2.824 2.732-4.526 3.786-.967.586-1.392.508-2.011-.585.077 1.015.077 1.912.193 2.771.116.937.62 1.171 1.47.781.774-.39 1.431-.937 2.089-1.522 1.044-.898 2.011-1.835 3.056-2.694 1.276-1.093 2.746-1.835 4.448-2.069 2.398-.351 4.37.742 5.415 2.967a8.775 8.775 0 0 1 .812 3.708c0 2.616 0 5.27-.116 7.886-.232-.703-.425-1.406-.696-2.07-1.16-2.693-3.481-3.747-6.266-3.005-1.547.43-2.863 1.25-4.023 2.303a199.49 199.49 0 0 1-3.133 2.772c-.464.39-1.006.78-1.547 1.054-.929.468-1.431.195-1.625-.859-.155-1.054-.039-2.147-.31-3.201-.618-2.46-2.243-3.552-4.757-3.084-2.669.508-4.758 2.069-6.808 3.748C2.862 30.682 1.51 32.4 0 34v-9.447c1.2-1.249 2.32-2.537 3.559-3.708 2.166-2.03 4.487-3.826 7.465-4.568 2.553-.624 4.139.235 5.067 2.733.039.117.039.273.232.234 0-.507.039-1.015 0-1.483-.232-3.709-2.475-5.27-5.957-4.138-2.669.859-4.912 2.498-6.962 4.372C2.244 19.049 1.16 20.22 0 21.313c.039-2.928.039-5.894.039-8.822zM44 47.961c.139-.428.056-.857.056-1.285V1.225c0-.39-.195-.896.222-1.13.472-.272.722.04.722.935V48c-.333-.039-.667-.039-1-.039zM75.911 48c-.518-.302-1.036-.604-1.628-.943.037.641-.259.868-.814.792-.703-.075-.407-.641-.407-.981a282.832 282.832 0 0 1 0-7.925c0-.415-.185-.943.555-.943.814 0 .63.528.63.981v2.566c.37.038.517-.226.702-.377 1.184-.793 2.702-.717 3.775.226 1.998 1.698 1.591 5.17-.814 6.34-.148.075-.333.189-.481.264H75.91zm-1.702-3.736c0 1.396 1.036 2.566 2.295 2.566 1.22 0 2.22-1.132 2.22-2.528 0-1.396-1.036-2.528-2.257-2.528-1.222 0-2.258 1.132-2.258 2.49zM106.787 47.96c-2.362-1.27-3.15-2.783-2.638-5.074.433-1.881 2.008-3.068 3.78-2.863 1.811.204 3.071 1.84 3.071 3.804 0 .573-.236.696-.748.696H106c-.59 0-.67.204-.473.736.59 1.514 2.441 2.005 3.82.9.472-.368.747-.49 1.141 0 .473.614-.197.777-.433 1.023-.354.327-.827.532-1.26.818-.67-.04-1.339-.04-2.008-.04zm.67-4.542h1.535c.59.041.709-.204.472-.736-.315-.818-.826-1.35-1.693-1.473-.866-.123-1.496.287-1.968.982-.197.327-.473.695-.315 1.064.157.327.63.122.945.163h1.023zM66.19 47c-1.637-.58-2.267-1.705-2.183-3.192a39.541 39.541 0 0 0 0-3.155c0-.435.126-.617.672-.617s.798.145.756.617a39.541 39.541 0 0 0 0 3.155c.042 1.342.714 1.995 1.973 1.995 1.26 0 2.057-.725 2.141-2.031a39.541 39.541 0 0 0 0-3.155c0-.508.252-.617.798-.617s.63.218.63.617v5.585c0 .181.126.472-.21.544-.336.073-.924.181-1.008-.072-.336-.762-.671-.29-1.05-.11-.251.11-.503.255-.755.363-.588.073-1.176.073-1.763.073zM120.166 47.959c-.584-.247-1.125-.534-1.709-.78-.417-.206-.625-.411-.292-.904.292-.411.5-.493.959-.206.667.452 1.417.699 2.209.658.583-.042 1.083-.206 1.25-.822.167-.698-.375-.945-.875-1.11-.667-.246-1.376-.41-2.042-.657-.876-.328-1.417-.944-1.376-1.93.042-1.027.625-1.685 1.584-2.013 1.209-.411 2.334-.123 3.418.41.333.165.666.288.333.781-.208.329-.333.698-.875.41-.584-.328-1.25-.574-1.917-.492-.542.041-1.042.205-1.126.78-.083.576.375.781.834.945.625.247 1.292.411 1.917.658.875.328 1.542.903 1.542 1.93s-.542 1.726-1.459 2.137c-.166.082-.375.04-.416.246-.667-.041-1.334-.041-1.96-.041zM91.256 48c-.618-.286-1.276-.573-1.893-.86-.288-.163-.535-.367-.206-.736.247-.245.33-.736.905-.368.659.45 1.358.737 2.181.696.576 0 1.193-.164 1.358-.819.165-.736-.412-.982-.946-1.145-.659-.246-1.358-.41-1.976-.696-.781-.327-1.316-.9-1.275-1.84.041-.942.494-1.596 1.358-1.965 1.317-.532 2.55-.204 3.744.41.33.163.37.409.165.654-.206.246-.247.696-.782.41-.576-.287-1.152-.533-1.81-.533-.618 0-1.194.164-1.317.819-.124.613.452.818.905.982.576.245 1.193.368 1.81.613.865.328 1.523.9 1.523 1.923 0 1.064-.535 1.8-1.522 2.169-.165.081-.289.163-.453.245-.617.041-1.193.041-1.77.041zM127.526 13.37c4.312-4.532 9.325-4.455 11.89 0 1.592-2.573 3.962-3.495 6.876-3.303 3.225.192 5.324 2.113 5.596 5.339.194 2.227.077 4.493.077 6.72.04 2.305 0 4.61 0 6.914 0 .614-.116.883-.816.883-1.787 0-1.787.039-1.787-1.766 0-3.995 0-7.95-.078-11.945-.039-2.189-1.01-3.341-2.758-3.725-2.487-.576-4.546.115-5.634 1.92-.739 1.19-1.01 2.497-1.01 3.88-.04 3.533-.078 7.027-.04 10.56 0 .846-.194 1.23-1.087 1.076a2.137 2.137 0 0 0-.7 0c-.66.077-.855-.192-.855-.806.04-3.226 0-6.453 0-9.679v-2.65c-.038-2.304-.932-3.763-2.564-4.263-2.098-.614-4.468.154-5.673 1.882-1.01 1.46-1.282 3.111-1.282 4.8a411.43 411.43 0 0 0 0 9.794c0 .769-.233.999-1.01.999-1.632-.038-1.632 0-1.632-1.651 0-5.53.039-11.061-.039-16.592 0-1.114.544-1.037 1.282-1.037s1.36-.038 1.166.999c.039.422.078.96.078 1.651zM69.337 14.379c1.598-2.59 3.974-3.517 6.858-3.363 3.311.155 5.415 2.126 5.688 5.41.234 2.783.039 5.566.078 8.349.039 1.739-.04 3.517 0 5.256 0 .657-.117.927-.857.927-1.754-.039-1.754 0-1.754-1.739 0-4.02.04-8-.078-12.02-.078-2.395-1.052-3.477-3.077-3.864-2.455-.464-4.559.425-5.533 2.396-.584 1.198-.818 2.512-.818 3.865v10.435c0 .695-.078 1.004-.896.966-1.753-.039-1.753 0-1.753-1.7V18.358v-.695c-.04-2.242-.935-3.71-2.533-4.213-2.026-.618-4.441.155-5.65 1.778-1.051 1.468-1.324 3.169-1.363 4.908-.039 3.285-.039 6.57 0 9.855 0 .734-.117 1.043-.974 1.005-1.636-.078-1.636 0-1.636-1.623 0-5.604.039-11.208-.039-16.812 0-1.198.662-.927 1.325-.966.74-.039 1.246.039 1.09.966-.077.541 0 1.082.078 1.7 1.481-2.125 3.429-3.246 5.961-3.246 2.65 0 4.715.812 5.883 3.363zM192.465 28.324a7.67 7.67 0 0 1-.464.512c-2.398 2.954-6.266 3.978-9.747 2.481-2.166-.906-3.172-2.638-3.25-5.001-.077-2.363.813-4.136 2.94-5.16 2.089-.984 4.37-1.063 6.576-1.378.425-.079.85-.118 1.276-.158 1.122-.078 2.089-.354 2.398-1.654.348-1.496-.193-3.111-1.354-3.86-1.779-1.18-5.453-1.023-7.078.316a3.628 3.628 0 0 0-1.276 2.52c-.039.71-.348.945-1.045.906-1.856-.04-1.856 0-1.392-1.812.696-2.835 2.707-4.529 6.073-4.922 1.547-.197 3.094-.158 4.641.275 2.553.71 4.023 2.6 4.1 5.396.077 3.544.039 7.089.039 10.633 0 1.379.232 1.615 1.624 1.615.116 0 .348-.04.348 0 .194.59.116 1.181.078 1.812-.039.472-.426.433-.735.472-.774.04-1.509.118-2.244-.157-1.199-.473-1.392-1.536-1.508-2.836zm-.155-7.286c-1.702.59-3.326.748-4.95.985-1.161.157-2.283.354-3.366.827-1.315.551-2.36 1.378-2.36 3.032.04 1.615.852 2.718 2.283 3.348 3.597 1.615 8.2-1.26 8.393-5.238.039-.906 0-1.851 0-2.954zM99.38 28.357c-2.466 3.68-5.78 4.154-9.48 3.244-2.428-.633-3.738-2.532-3.892-5.262-.116-2.493 1.04-4.353 3.353-5.302 2.004-.831 4.123-.91 6.204-1.227.617-.08 1.234-.119 1.85-.237.77-.12 1.465-.475 1.696-1.346.424-1.78-.039-3.917-2.197-4.59-1.58-.474-3.199-.514-4.779.04-1.503.514-2.466 1.583-2.62 3.245-.077.79-.386 1.068-1.118.95a2.042 2.042 0 0 0-.693 0c-.694.078-.925-.12-.81-.91.309-2.691 1.927-4.749 4.47-5.5 2.043-.594 4.124-.594 6.167-.12 2.543.594 4.2 2.572 4.239 5.263.077 3.522.038 7.043.038 10.565 0 1.82.309 2.097 2.043 1.899.039.079.077.119.077.198-.231.712.617 1.82-.617 2.097-2.004.435-3.314-.238-3.7-1.741-.076-.356-.115-.712-.23-1.266zm-.115-7.28c-1.195.434-2.274.593-3.391.79-1.735.278-3.469.396-5.087 1.148-1.195.554-2.081 1.306-2.12 2.77-.039 1.503.617 2.611 1.85 3.363 3.391 1.978 8.478-.791 8.748-4.788.038-1.068 0-2.097 0-3.284zM202.692 14.257c1.795-2.436 4.019-3.363 6.75-3.247 4.136.193 6.36 2.164 6.477 6.262.156 4.329.039 8.697.039 13.026 0 .464-.117.619-.624.657-1.99.116-1.99.155-1.99-1.855V19.05v-1.005c-.156-2.59-1.249-4.175-3.16-4.677-2.654-.658-5.15.309-6.477 2.435-.742 1.198-1.054 2.474-1.054 3.865 0 3.363-.039 6.765.04 10.128 0 .889-.235 1.237-1.093 1.082a2.141 2.141 0 0 0-.703 0c-.702.116-.897-.193-.897-.889.039-5.875.039-11.712 0-17.588 0-.696.195-.889.897-.889 1.756.039 1.795 0 1.795 1.778v.967zM105 20.157c.115-3.393 1.107-6.785 4.506-8.836 2.978-1.775 6.07-1.735 9.087-.04 1.909 1.066 2.787 2.88 3.207 4.97.115.513.038.868-.61.79a1.4 1.4 0 0 0-.573 0c-.917.157-1.337-.198-1.642-1.144-1.413-4.576-6.682-4.22-9.011-1.854-3.284 3.313-3.17 10.176.305 13.292 3.246 2.919 7.98 1.262 9.05-3.155.076-.316-.077-.868.42-.907.725-.04 1.45-.04 2.138.078.229.04.076.474.038.71-.688 3.748-2.94 6.232-6.11 6.785-3.932.67-7.407-.868-9.278-4.142C105.42 24.771 105 22.72 105 20.157zM173 17.465c0-4.175.044-8.35 0-12.525 0-.74.22-.975 1.059-.936 1.897.04 1.897 0 1.897 1.678 0 8.037 0 16.113.044 24.15 0 .937-.265 1.288-1.324 1.132a1.885 1.885 0 0 0-.661 0c-.794.117-1.015-.156-1.015-.858V17.465zM167.956 17.472c0 4.138-.044 8.314.044 12.452 0 .82-.265 1.171-1.191 1.054a3.68 3.68 0 0 0-.927 0c-.706.078-.882-.195-.882-.78V4.784c0-.624.176-.82.882-.78 2.56.078 2.03-.273 2.074 1.756.044 3.904 0 7.807 0 11.71zM160 20.573c0 2.84-.044 5.641 0 8.48 0 .72-.22.947-1.059.947-1.897-.038-1.897 0-1.897-1.666 0-5.414 0-10.827-.044-16.241 0-.833.22-1.212 1.235-1.06.265.038.53.038.794 0 .795-.114.971.227.927.833.044 2.877.044 5.792.044 8.707zM55.037 43c0-1.35.037-2.738 0-4.087 0-.635.11-.913.773-.913 1.142.04 2.284-.04 3.39.08 1.768.158 2.8 1.349 2.8 3.055.036 1.746-1.032 3.016-2.764 3.294-.736.119-1.51.119-2.247.119-.516 0-.737.158-.7.754.037.635 0 1.31 0 1.944.037.516-.11.754-.626.754-.479 0-.663-.159-.663-.714.074-1.429.037-2.857.037-4.286zm1.29-1.706v1.428c0 .238-.038.516.294.516 1.031 0 2.1.238 3.094-.238.737-.357 1.068-.992 1.032-1.865-.037-.913-.516-1.429-1.29-1.667-.405-.119-.884-.119-1.326-.119-1.805-.04-1.805-.04-1.805 1.945zM97.17 41.563c.44-.268.732-.498 1.062-.651 1.792-.805 3.622.383 3.731 2.49.074 1.341 0 2.682.037 4.023 0 .498-.22.575-.622.575s-.622-.077-.622-.613c.037-1.15.037-2.299 0-3.448-.036-1.341-.622-2.031-1.646-2.07-1.098-.038-1.866.805-1.903 2.07a48.327 48.327 0 0 0 0 3.256c0 .46 0 .805-.622.805-.548 0-.585-.307-.585-.728v-8.544c0-.498.11-.728.622-.728.549 0 .585.307.585.766-.073.882-.036 1.763-.036 2.797zM114.366 41.253c.613-.626 1.155-1.031 1.841-1.178.325-.074.758-.222.758.331 0 .332.217.774-.433.958-1.625.442-2.166 1.179-2.239 2.873-.036.7-.036 1.4 0 2.063.037.516-.144.7-.686.7-.577 0-.541-.368-.541-.737V41.07c0-.331-.325-.884.47-.994.794 0 .794.478.83 1.178zM82.971 43.076v4.199c0 .458-.057.725-.457.725-.457 0-.514-.229-.514-.763v-8.435c0-.497.057-.802.514-.802.486 0 .486.344.486.802-.057 1.45-.029 2.862-.029 4.274zM86.996 43.481c0 .974-.029 1.91 0 2.883 0 .524-.175.636-.525.636-.35 0-.497-.15-.467-.599 0-1.909.029-3.856 0-5.765 0-.524.175-.636.525-.636.35 0 .497.15.467.599v2.882zM160 5.483C160 6.35 159.357 7 158.5 7c-.856 0-1.534-.686-1.499-1.517 0-.795.679-1.445 1.464-1.482.857-.036 1.535.615 1.535 1.482zM86.98 38.54c.08.458-.211.431-.529.458-.449.027-.423-.243-.449-.566-.026-.432.212-.405.502-.432.397 0 .555.135.476.54z"/>
    </g>
</svg>
